<?xml version="1.0" encoding="UTF-8"?><svg id="a" xmlns="http://www.w3.org/2000/svg" viewBox="0 0 80 80"><defs><style>.b{fill:#eed371;}.c{fill:#444;}</style></defs><rect class="b" width="80" height="80" rx="11" ry="11"/><g><path class="c" d="M26.13,65.11c-.01-.06-.07-.05-.11-.06-.7-.26-1.06-.77-1.06-1.52,0-3.13,0-6.27,0-9.4,0-11.85,0-23.7,0-35.55,0-.82,.45-1.42,1.2-1.58,.91-.2,1.79,.49,1.81,1.42,.01,.45,.01,.91,0,1.36,0,.16,.05,.19,.2,.19,.38-.01,.75-.01,1.13,0,.16,0,.19-.05,.19-.2,0-.43,0-.86,0-1.29,0-.86,.67-1.53,1.52-1.52,.83,0,1.48,.67,1.49,1.52,0,.43,0,.86,0,1.29,0,.15,.03,.2,.19,.2,.38-.01,.75-.01,1.13,0,.15,0,.2-.03,.2-.19-.01-.43,0-.86,0-1.29,0-.87,.67-1.53,1.51-1.53,.84,0,1.49,.67,1.5,1.54,0,.43,0,.86,0,1.29,0,.15,.04,.18,.18,.18,.38-.01,.77-.01,1.15,0,.15,0,.18-.04,.18-.18,0-.43,0-.86,0-1.29,0-.87,.66-1.54,1.5-1.54,.84,0,1.5,.67,1.5,1.54,0,.44,0,.88,0,1.32,0,.12,.02,.16,.15,.16,.4,0,.8-.01,1.2,0,.15,0,.16-.06,.16-.18,0-.43,0-.86,0-1.29,0-.87,.66-1.54,1.5-1.54,.84,0,1.5,.66,1.51,1.53,0,.43,0,.86,0,1.29,0,.16,.05,.19,.2,.19,.38-.01,.75-.01,1.13,0,.16,0,.19-.05,.19-.2,0-.43,0-.86,0-1.29,0-.85,.66-1.52,1.49-1.52,.84,0,1.51,.66,1.52,1.52,0,.44,0,.88,0,1.32,0,.13,.03,.18,.16,.17,.39,0,.78,0,1.18,0,.13,0,.17-.03,.17-.17,0-.4,.01-.8,0-1.2-.05-1,.72-1.65,1.51-1.65,.88,0,1.5,.68,1.5,1.64,0,8.82,0,17.65,0,26.47,0,6.14,0,12.29,0,18.43,0,.71-.34,1.25-.93,1.49-.11,.04-.23,.08-.34,.11h-.56c0-.05-.05-.05-.09-.06-.73-.27-1.09-.77-1.09-1.54,0-.41,0-.83,0-1.24,0-.1,0-.17-.14-.17-.41,.01-.81,.01-1.22,0-.14,0-.14,.06-.14,.17,0,.46,0,.92,0,1.38-.01,.64-.44,1.19-1.04,1.39-.08,.02-.18-.02-.23,.07h-.56c0-.05-.06-.05-.09-.06-.73-.27-1.08-.77-1.09-1.54,0-.41,0-.83,0-1.24,0-.13-.04-.17-.17-.17-.39,0-.78,0-1.17,0-.13,0-.17,.03-.17,.17,0,.46,0,.92,0,1.38-.01,.63-.42,1.17-1.02,1.38-.08,.03-.19,0-.25,.08h-.56c0-.05-.05-.05-.09-.06-.73-.26-1.08-.77-1.09-1.55,0-.41,0-.83,0-1.24,0-.1,0-.17-.14-.17-.41,.01-.81,.01-1.22,0-.14,0-.14,.06-.14,.17,0,.46,0,.92,0,1.38-.01,.64-.44,1.19-1.04,1.39-.08,.03-.18-.02-.23,.07h-.56c0-.05-.05-.05-.09-.06-.73-.27-1.08-.77-1.09-1.54,0-.41,0-.83,0-1.24,0-.13-.04-.17-.17-.17-.39,0-.78,0-1.17,0-.13,0-.17,.03-.17,.17,0,.46,.01,.92,0,1.38-.01,.64-.44,1.19-1.04,1.39-.08,.03-.18-.02-.23,.07h-.56c0-.05-.05-.05-.09-.06-.73-.27-1.08-.77-1.09-1.54,0-.41,0-.83,0-1.24,0-.13-.04-.17-.17-.17-.39,0-.78,0-1.17,0-.13,0-.17,.03-.17,.17,0,.46,0,.92,0,1.38-.01,.64-.44,1.19-1.04,1.39-.08,.03-.18-.02-.23,.07h-.56c0-.05-.05-.05-.09-.06-.73-.27-1.09-.77-1.09-1.54,0-.41,0-.83,0-1.24,0-.1,0-.17-.14-.17-.41,.01-.81,.01-1.22,0-.14,0-.14,.06-.14,.17,0,.46,0,.92,0,1.38-.01,.64-.44,1.19-1.04,1.39-.08,.02-.18-.02-.23,.07h-.56Zm1.83-24.1c0,4.44,0,8.87,0,13.31,0,.21,.05,.26,.26,.26,7.85,0,15.71,0,23.56,0,.21,0,.26-.05,.26-.26,0-8.86,0-17.71,0-26.57,0-.21-.05-.26-.26-.26-7.85,0-15.71,0-23.56,0-.21,0-.26,.05-.26,.26,0,4.42,0,8.84,0,13.26Zm12.01-16.53c.19,0,.38,0,.56,0,3.76,0,7.52,0,11.29,0,.17,0,.23-.04,.22-.22-.02-.34-.02-.69,0-1.03,.01-.21-.05-.26-.26-.26-4.33,0-8.67,0-13,0-3.53,0-7.07,0-10.6,0-.17,0-.23,.04-.22,.22,.02,.35,.02,.71,0,1.06-.01,.2,.04,.24,.24,.24,3.93,0,7.85,0,11.78,0Zm.05,33.1c-.31,0-.63,0-.94,0-3.64,0-7.27,0-10.91,0-.17,0-.23,.04-.22,.22,.02,.34,.02,.69,0,1.03-.01,.21,.05,.26,.26,.26,4.51,0,9.01,0,13.52,0,3.36,0,6.72,0,10.09,0,.17,0,.23-.04,.22-.22-.02-.34-.02-.69,0-1.03,.01-.21-.05-.26-.26-.26-3.92,0-7.84,0-11.76,0Z"/><path class="b" d="M27.96,41.01c0-4.42,0-8.84,0-13.26,0-.21,.05-.26,.26-.26,7.85,0,15.71,0,23.56,0,.21,0,.26,.05,.26,.26,0,8.86,0,17.71,0,26.57,0,.21-.05,.26-.26,.26-7.85,0-15.71,0-23.56,0-.21,0-.26-.05-.26-.26,0-4.44,0-8.87,0-13.31Zm4.51,2.86c0,2.02,0,4.04,0,6.06,0,1,.63,1.63,1.62,1.63,3.93,0,7.85,0,11.78,0,1.03,0,1.65-.62,1.65-1.65,0-3.9-.01-7.8,0-11.71,0-1.94-.69-3.55-2.08-4.88-1.43-1.38-3.16-2.22-5.05-2.77-.27-.08-.54-.08-.81,0-1.72,.5-3.3,1.25-4.67,2.42-1.66,1.42-2.51,3.21-2.46,5.42,.04,1.82,0,3.65,0,5.48Z"/><path class="b" d="M39.98,24.48c-3.93,0-7.85,0-11.78,0-.2,0-.25-.04-.24-.24,.02-.35,.02-.71,0-1.06,0-.18,.04-.22,.22-.22,3.53,0,7.07,0,10.6,0,4.33,0,8.67,0,13,0,.21,0,.28,.05,.26,.26-.02,.34-.02,.69,0,1.03,0,.18-.04,.22-.22,.22-3.76,0-7.52,0-11.29,0-.19,0-.38,0-.56,0Z"/><path class="b" d="M40.02,57.59c3.92,0,7.84,0,11.76,0,.21,0,.28,.05,.26,.26-.02,.34-.02,.69,0,1.03,0,.18-.04,.22-.22,.22-3.36,0-6.72,0-10.09,0-4.51,0-9.01,0-13.52,0-.21,0-.28-.05-.26-.26,.02-.34,.02-.69,0-1.03,0-.18,.04-.22,.22-.22,3.64,0,7.27,0,10.91,0,.31,0,.63,0,.94,0Z"/><path class="c" d="M32.48,43.87c0-1.83,.03-3.65,0-5.48-.05-2.22,.8-4,2.46-5.42,1.37-1.17,2.95-1.92,4.67-2.42,.27-.08,.54-.08,.81,0,1.89,.55,3.62,1.39,5.05,2.77,1.38,1.33,2.08,2.95,2.08,4.88-.02,3.9,0,7.8,0,11.71,0,1.04-.61,1.65-1.65,1.65-3.93,0-7.85,0-11.78,0-1,0-1.62-.63-1.62-1.63,0-2.02,0-4.04,0-6.06Zm3.01-.77c0,1.74,0,3.48,0,5.22,0,.19,.04,.24,.24,.24,2.85,0,5.7,0,8.55,0,.22,0,.25-.07,.25-.26,0-3.35-.02-6.71,0-10.06,0-1.08-.37-1.97-1.12-2.72-.93-.93-2.08-1.49-3.29-1.92-.08-.03-.15-.02-.23,0-.99,.35-1.94,.8-2.77,1.46-1.01,.8-1.65,1.79-1.63,3.14,.02,1.63,0,3.26,0,4.89Z"/><path class="b" d="M35.49,43.1c0-1.63,.02-3.26,0-4.89-.02-1.35,.62-2.34,1.63-3.14,.83-.66,1.77-1.11,2.77-1.46,.08-.03,.15-.03,.23,0,1.22,.44,2.36,.99,3.29,1.92,.75,.75,1.13,1.64,1.12,2.72-.02,3.35,0,6.71,0,10.06,0,.19-.03,.26-.25,.26-2.85,0-5.7,0-8.55,0-.2,0-.24-.05-.24-.24,0-1.74,0-3.48,0-5.22Z"/></g></svg>