<?xml version="1.0" encoding="utf-8"?>
<!-- Generator: Adobe Illustrator 26.1.0, SVG Export Plug-In . SVG Version: 6.00 Build 0)  -->
<svg version="1.1" id="a" xmlns="http://www.w3.org/2000/svg" xmlns:xlink="http://www.w3.org/1999/xlink" x="0px" y="0px"
	 viewBox="0 0 80 80" style="enable-background:new 0 0 80 80;" xml:space="preserve">
<style type="text/css">
	.st0{fill:#7FBCD1;}
	.st1{fill:#444444;}
</style>
<path class="st0" d="M11,0h58c6.1,0,11,4.9,11,11v58c0,6.1-4.9,11-11,11H11C4.9,80,0,75.1,0,69V11C0,4.9,4.9,0,11,0z"/>
<g>
	<path class="st1" d="M57.7,26.1c0-0.9-0.7-1.6-1.6-1.6c-0.9,0-1.6,0.7-1.6,1.6s0.7,1.6,1.6,1.6C56.9,27.7,57.7,27,57.7,26.1
		L57.7,26.1z"/>
	<path class="st1" d="M25.6,65.8c0-0.1-0.1-0.1-0.2-0.1c-0.6-0.2-1-0.7-1-1.3c-0.2-2-0.3-4.1-0.5-6.1c-0.2-2.1-0.4-4.2-0.5-6.2
		c-0.1-1.7-0.3-3.3-0.4-5c-0.3-3.3-0.1-6.7-0.1-10c0-1,0-2,0-3c0-0.8,0.6-1.5,1.4-1.5c0.8-0.1,1.5,0.4,1.7,1.1
		c0.1,0.2,0.1,0.4,0.1,0.6c0,3.5,0,7,0,10.5c0,1,0.1,2,0.2,3c0.1,1.5,0.2,3,0.4,4.5c0.1,1.7,0.3,3.4,0.4,5.1c0.1,1.5,0.2,3,0.4,4.4
		c0,0.2,0,0.3,0,0.4c0,0.3,0.2,0.4,0.5,0.4s0.6,0,1,0c0.3,0,0.3-0.1,0.3-0.3c0-3,0-6,0-9c0-0.3,0-0.6,0.1-0.8
		c0.5-1.4,0.9-2.8,1.4-4.1c0-0.2,0.1-0.3,0.1-0.5c0-0.9,0-1.7,0-2.6c0-1.3,1.2-2,2.3-1.5c1.5,0.7,3,1.1,4.5,1.3c1.3,0.2,2.7,0,4-0.3
		c0.9-0.2,1.8-0.6,2.7-1c1.2-0.6,2.4,0.2,2.4,1.5c0,0.9,0,1.7,0,2.6c0,0.1,0,0.3,0.1,0.4c0.5,1.4,0.9,2.8,1.4,4.2
		c0.1,0.2,0.1,0.5,0.1,0.8c0,3,0,6.1,0,9.1c0,0.2,0.1,0.3,0.3,0.3c0.4,0,0.8,0,1.2,0c0.2,0,0.3-0.1,0.3-0.3c0.1-1.1,0.2-2.1,0.3-3.2
		c0.2-1.6,0.3-3.2,0.5-4.7c0.2-1.6,0.3-3.1,0.5-4.7c0.2-2,0.1-4,0.1-6c0-1.1,0.7-1.7,1.7-1.7c0.9,0,1.7,0,2.6-0.1
		c2.5-0.4,4.7-2.6,5.1-5.1c0.1-0.4,0.1-0.8,0.1-1.3c0-2.5,0-5.1,0-7.6c0-1.1,0.7-1.7,1.7-1.7c0.5,0,0.9,0,1.4,0
		c0.9,0,1.6-0.7,1.6-1.6s-0.7-1.6-1.6-1.6c-0.5,0-0.8-0.2-1.2-0.5c-0.5-0.5-1-1-1.5-1.5c-0.3-0.3-0.5-0.7-0.5-1.2
		c0-0.9-0.7-1.6-1.6-1.6c-0.9,0-1.6,0.7-1.6,1.6c0,0.5,0,1,0,1.5c0,0.9-0.7,1.6-1.6,1.6c-0.9,0-1.6-0.7-1.6-1.6c0-0.7,0-1.4,0-2.1
		c0.3-2.2,1.8-3.8,4-4.2c0,0,0.1,0,0.1-0.1h1.1c0,0,0,0,0.1,0.1c2,0.3,3.4,1.5,4,3.4c0.1,0.4,0.3,0.8,0.6,1.1l0.1,0.1
		c0.1,0.1,0.2,0.2,0.4,0.2c1.9,0.4,3.2,1.6,3.7,3.5c0.1,0.2,0,0.4,0.1,0.5v1.2c-0.1,0.1-0.1,0.2-0.1,0.3c-0.4,2.1-2.3,3.8-4.4,3.8
		c-0.2,0-0.2,0.1-0.2,0.2c0,2,0,4,0,6c0,0.8-0.1,1.5-0.2,2.2c-0.9,4.2-4.7,7.3-9,7.4c-0.2,0-0.2,0-0.2,0.2c0,1.3,0.1,2.7-0.1,4
		c-0.2,1.6-0.3,3.1-0.5,4.7c-0.2,1.7-0.3,3.5-0.5,5.2s-0.3,3.4-0.5,5.1c-0.1,0.7-0.5,1.1-1.1,1.3c-0.1,0-0.2,0-0.2,0.1h-5.4
		c0,0,0,0,0-0.1C45.3,65.4,45,64.9,45,64c0-3.4,0-6.8,0-10.1c0-0.3,0-0.7-0.2-1c-0.2-0.6-0.4-1.2-0.6-1.8c-0.3-1.2-0.9-2.2-0.8-3.5
		c-3.2,1.1-6.3,1.1-9.5,0c0,0.3,0,0.5,0,0.8c0,0.2,0,0.5-0.1,0.7c-0.3,0.9-0.6,1.8-0.9,2.7c-0.4,1.1-0.6,2.3-0.6,3.5c0,3,0,6,0,9
		c0,0.8-0.4,1.3-1.1,1.6c-0.1,0-0.2,0-0.3,0.1L25.6,65.8L25.6,65.8z"/>
	<path class="st1" d="M18,31.8c0.1-0.2,0.1-0.5,0.2-0.7c0.6-2,2.3-3.4,4.4-3.4c0.2,0,0.2,0,0.2-0.2c0-0.8,0-1.7,0.1-2.5
		c0.4-2.6,2.6-4.7,5.1-5.1c3.5-0.6,6.6,1.6,7.3,5c0.1,0.4,0.1,0.8,0.1,1.2c0,0.9,0.7,1.6,1.6,1.6c0.9,0,1.6-0.7,1.6-1.6
		c0.1-3.2,2.3-5.7,5.4-6.2c3.3-0.5,6.7,1.9,7.2,5.2c0.1,0.4,0.1,0.8,0.1,1.2c0,1.5,0,3.1,0,4.6c0,0.8,0.5,1.4,1.2,1.5
		c0.7,0.2,1.4-0.2,1.8-0.8c0.1-0.2,0.2-0.5,0.2-0.7c0-0.9,0.7-1.6,1.6-1.6c0.9,0,1.5,0.7,1.5,1.7c0,2.4-1.9,4.4-4.4,4.7
		c-2.4,0.2-4.6-1.5-5-3.8c-0.1-0.3-0.1-0.6-0.1-1c0-1.6,0-3.1,0-4.7c0-1.8-1.5-3.2-3.2-3.2s-3.1,1.4-3.1,3.2c0,1.8-0.8,3.2-2.4,4.1
		c-2.9,1.7-6.7-0.2-7.1-3.5c0-0.4,0-0.9-0.1-1.3c-0.4-1.5-1.9-2.6-3.4-2.4c-1.6,0.2-2.8,1.5-2.9,3.1c0,1,0,2.1,0,3.1
		S25.2,31,24.2,31c-0.5,0-0.9,0-1.4,0c-1,0-1.7,0.7-1.7,1.7c0,5.2,0,10.5,0,15.7c0,0.8-0.5,1.5-1.2,1.6c-0.8,0.2-1.6-0.2-1.9-1
		c0-0.1,0-0.2-0.1-0.2L18,31.8L18,31.8z"/>
	<path class="st1" d="M57.7,26.1c0,0.9-0.7,1.6-1.6,1.6c-0.9,0-1.6-0.7-1.6-1.6s0.7-1.6,1.6-1.6S57.7,25.2,57.7,26.1L57.7,26.1z"/>
</g>
</svg>
