<?xml version="1.0" encoding="UTF-8"?><svg id="a" xmlns="http://www.w3.org/2000/svg" viewBox="0 0 80 80"><defs><style>.b{fill:#69a373;}.c{fill:#fdfdfd;}.d{fill:#444;}</style></defs><rect class="b" width="80" height="80" rx="11" ry="11"/><g><path class="c" d="M31.99,43.12c.87,0,1.59-.73,1.59-1.6,0-.88-.69-1.59-1.59-1.59-.91,0-1.63,.71-1.62,1.61,.01,.87,.74,1.58,1.61,1.58Z"/><path class="d" d="M65.65,48.83c-.17,.07-.14,.25-.18,.38-.61,2.09-2.41,3.48-4.58,3.52-.42,0-.84,.02-1.25,0-.33-.02-.41,.08-.41,.41,.01,3.07,.02,6.14,0,9.21-.01,2.22-1.44,4.05-3.57,4.64-.21,.06-.42,.12-.64,.13-1.53,.05-3.08,.17-4.6-.05-2.32-.34-3.99-2.31-4.01-4.66-.02-3.07-.01-6.14,0-9.21,0-.36-.06-.51-.45-.47-.38,.04-.77,0-1.15,.01-.89,.02-1.54,.65-1.61,1.53-.08,1.06-.78,1.74-1.72,1.67-.91-.06-1.52-.83-1.48-1.85,.1-2.41,2.13-4.45,4.55-4.55,.47-.02,.94-.04,1.4,0,.37,.03,.47-.08,.46-.46-.02-3.96-.01-7.91,0-11.87,0-2.45-.03-4.91,0-7.36,.05-2.96,.71-5.75,2.4-8.23,2.01-2.96,4.82-4.77,8.26-5.66,.06-.02,.13-.01,.15-.1h.8c.93,.39,1.25,1.1,1.22,2.1-.05,1.58-.01,3.17-.01,4.76,0,4.61,0,9.21,0,13.82,0,.76-.3,1.34-.99,1.64-1.09,.48-2.21-.35-2.22-1.63,0-5.44,0-10.88,0-16.32v-.57c-1.03,.44-1.91,.99-2.71,1.68-2.52,2.17-3.63,5.02-3.67,8.24-.08,6.54-.03,13.09-.04,19.63,0,.26,.06,.34,.33,.33,1.92-.01,3.84-.01,5.76,0,.32,0,.34-.13,.34-.38-.01-.93-.01-1.87,0-2.8,.01-.94,.71-1.63,1.6-1.63,.89,0,1.58,.71,1.6,1.64,.01,.62,0,1.24,0,1.85,.01,.43-.19,1.01,.08,1.24,.26,.22,.82,.07,1.25,.07,1.2,0,1.75-.52,1.87-1.73,.07-.73,.6-1.32,1.31-1.46,.7-.14,1.4,.23,1.74,.9,.05,.09,0,.25,.15,.28v1.3Zm-12.88,5.51c.68,0,1.37,0,2.05,0,1.22,0,1.2,0,1.21-1.2,0-.33-.08-.41-.41-.41-1.6,.02-3.2,0-4.81,0-1.24,0-1.23,0-1.21,1.25,0,.28,.08,.36,.36,.36,.93-.02,1.87,0,2.8,0Zm.05,3.21c-.67,0-1.34,0-2,0-.38,0-.89-.13-1.11,.06-.27,.23-.04,.75-.09,1.14-.04,.33,.08,.41,.41,.41,1.6-.02,3.21,0,4.81,0,1.23,0,1.22,0,1.21-1.25,0-.28-.08-.36-.36-.36-.95,.02-1.9,0-2.85,0Zm.03,4.81c-.97,0-1.93,.01-2.9,0-.31,0-.37,.09-.29,.37,.18,.69,.79,1.22,1.52,1.23,1.1,.02,2.2,.02,3.3,0,.73-.01,1.34-.53,1.52-1.23,.07-.28,.03-.38-.29-.37-.95,.02-1.9,0-2.85,0Z"/><path class="d" d="M29.48,15.87c.23,.18,.52,.14,.78,.23,2.01,.68,3.32,2.48,3.33,4.64,.01,3.02,.01,6.04,0,9.07,0,.42,.1,.55,.52,.51,.31-.04,.63,0,.95,0,1.05,0,1.68-.6,1.75-1.64,.05-.73,.46-1.27,1.14-1.49,.63-.2,1.29,0,1.71,.52,.25,.31,.36,.66,.36,1.07,0,2.5-2.07,4.64-4.57,4.74-.45,.02-.9,.03-1.35,0-.37-.02-.52,.06-.5,.47,.04,.87,.02,1.74,.01,2.6,0,1.01-.68,1.74-1.6,1.74-.93,0-1.6-.72-1.6-1.74,0-.87-.02-1.74,0-2.6,.01-.35-.05-.48-.45-.47-1.87,.03-3.74,.02-5.61,0-.27,0-.37,.05-.37,.35,0,9.82,0,19.64,0,29.45,.15,.09,.26-.03,.36-.08,3.34-1.63,5.23-4.33,5.85-7.96,.28-1.61,.19-3.23,.2-4.85,0-1.32,0-2.64,0-3.96,0-1.01,.68-1.73,1.61-1.73,.91,0,1.6,.72,1.59,1.7-.04,2.75,.1,5.51-.09,8.26-.41,6-4.78,11.09-10.64,12.4-1.22,.27-2.09-.44-2.09-1.71,0-10.42,0-20.84,.01-31.26,0-.47-.07-.7-.6-.62-.33,.05-.67,0-1,.01-.89,.02-1.54,.65-1.61,1.53-.08,1.06-.77,1.74-1.72,1.67-.91-.06-1.52-.82-1.48-1.85,.1-2.41,2.14-4.45,4.55-4.55,.48-.02,.97-.03,1.45,0,.33,.02,.41-.08,.41-.41-.01-2.94,0-5.88,0-8.82,0-2.64,1.19-4.28,3.72-5.09,.07-.02,.17-.02,.19-.12h4.81Zm-2.35,9.62c.68,0,1.37,0,2.05,0,1.22,0,1.2,0,1.21-1.2,0-.33-.1-.41-.41-.41-1.6,.02-3.2,0-4.81,0-1.23,0-1.22,0-1.21,1.26,0,.29,.09,.36,.36,.35,.93-.02,1.87,0,2.8,0Zm.1,3.21c-.68,0-1.37,0-2.05,0-1.22,0-1.21,0-1.21,1.2,0,.33,.08,.41,.41,.41,1.6-.02,3.2,0,4.81,0,1.24,0,1.23,0,1.21-1.25,0-.28-.08-.36-.36-.36-.93,.02-1.87,0-2.8,0Zm-.1-8.02c.98,0,1.97-.01,2.95,0,.3,0,.33-.1,.27-.35-.16-.69-.77-1.24-1.5-1.25-1.12-.02-2.24-.02-3.35,0-.73,.01-1.34,.56-1.5,1.25-.06,.25-.03,.36,.27,.35,.95-.02,1.9,0,2.85,0Z"/><path class="d" d="M31.99,43.12c-.87,0-1.6-.71-1.61-1.58-.01-.9,.71-1.62,1.62-1.61,.89,0,1.59,.71,1.59,1.59,0,.87-.73,1.59-1.59,1.6Z"/><path class="b" d="M52.77,54.34c-.93,0-1.87-.01-2.8,0-.28,0-.36-.07-.36-.36-.01-1.25-.02-1.25,1.21-1.25,1.6,0,3.21,.01,4.81,0,.33,0,.41,.08,.41,.41,0,1.2,0,1.2-1.21,1.2-.68,0-1.37,0-2.05,0Z"/><path class="b" d="M52.82,57.55c.95,0,1.9,.01,2.85,0,.28,0,.36,.07,.36,.36,.01,1.25,.02,1.25-1.21,1.25-1.6,0-3.21,0-4.81,0-.33,0-.45-.08-.41-.41,.05-.39-.17-.92,.09-1.14,.23-.19,.73-.06,1.11-.06,.67,0,1.34,0,2,0Z"/><path class="b" d="M52.85,62.36c.95,0,1.9,.01,2.85,0,.32,0,.36,.1,.29,.37-.18,.69-.78,1.22-1.52,1.23-1.1,.02-2.2,.02-3.3,0-.73-.01-1.34-.54-1.52-1.23-.07-.28-.02-.38,.29-.37,.97,.02,1.93,0,2.9,0Z"/><path class="b" d="M27.13,25.49c-.93,0-1.87-.01-2.8,0-.28,0-.36-.06-.36-.35-.02-1.26-.03-1.26,1.21-1.26,1.6,0,3.2,0,4.81,0,.32,0,.42,.07,.41,.41,0,1.21,0,1.21-1.21,1.2-.68,0-1.37,0-2.05,0Z"/><path class="b" d="M27.22,28.69c.93,0,1.87,.01,2.8,0,.28,0,.36,.07,.36,.36,.01,1.25,.02,1.25-1.21,1.25-1.6,0-3.2,0-4.81,0-.33,0-.41-.08-.41-.41,0-1.2,0-1.2,1.21-1.2,.68,0,1.37,0,2.05,0Z"/><path class="b" d="M27.12,20.68c-.95,0-1.9-.01-2.85,0-.3,0-.33-.1-.27-.35,.16-.7,.77-1.24,1.5-1.25,1.12-.02,2.24-.02,3.35,0,.72,.01,1.34,.56,1.5,1.25,.06,.25,.03,.35-.27,.35-.98-.02-1.97,0-2.95,0Z"/><path class="d" d="M57.65,39.93c.89,.02,1.59,.72,1.58,1.6,0,.89-.75,1.61-1.65,1.59-.87-.02-1.57-.75-1.55-1.63,.01-.88,.73-1.57,1.62-1.56Z"/></g></svg>