<?xml version="1.0" encoding="UTF-8"?><svg id="a" xmlns="http://www.w3.org/2000/svg" viewBox="0 0 80 80"><defs><style>.b{fill:#f7ede2;}.c{fill:#444;}</style></defs><rect class="b" width="80" height="80" rx="11" ry="11"/><g><path class="c" d="M31.64,67.2c-.05-.08-.14-.07-.21-.1-.61-.23-1.03-.81-1.03-1.46,0-1.09-.01-2.19,0-3.28,0-.87,.73-1.56,1.59-1.57,.87,0,1.59,.69,1.61,1.55,.01,.49,0,.98,0,1.48,0,.15,.04,.18,.18,.18,.42,0,.83,0,1.25,0,.15,0,.18-.05,.18-.18,0-4.16,0-8.31,0-12.47,0-.15-.05-.18-.18-.18-.42,0-.83,0-1.25,0-.15,0-.18,.05-.17,.18,0,.46,0,.92,0,1.38,0,.94-.71,1.65-1.62,1.65-.89,0-1.58-.72-1.59-1.65,0-.46,0-.92,0-1.38,0-.14-.03-.17-.17-.19-.83-.11-1.43-.77-1.43-1.57,0-.81,.57-1.49,1.39-1.6,.2-.03,.21-.09,.21-.26,0-4.7,0-9.4,0-14.09,0-.81,.46-1.45,1.17-1.64,.9-.24,1.8,.31,1.99,1.22,.02,.09,.03,.17,.06,.29,.53-.7,1.03-1.38,1.54-2.06,.06-.08,.03-.16,.04-.24,.02-.51-.05-1.02,.08-1.52,.24-.99,.87-1.73,1.6-2.39,.42-.38,.88-.72,1.37-1.01,.13-.08,.16-.16,.16-.3,0-1.24,0-2.49,0-3.73,0-.18-.07-.25-.23-.32-1.77-.71-2.98-2.49-2.98-4.39,0-.91,.68-1.63,1.56-1.65,.9-.02,1.61,.67,1.64,1.6,.03,.92,.72,1.61,1.61,1.61,.89,0,1.57-.69,1.6-1.62,.03-.91,.74-1.6,1.62-1.59,.88,.01,1.58,.73,1.58,1.63,0,1.9-1.2,3.68-2.99,4.41-.16,.07-.22,.14-.22,.32,0,1.23,0,2.45,0,3.68,0,.17,.04,.26,.19,.36,.95,.6,1.82,1.3,2.45,2.25,.41,.62,.63,1.29,.56,2.03-.05,.57,.1,1.02,.48,1.45,.39,.45,.73,.95,1.1,1.46,.04-.16,.06-.31,.1-.44,.23-.74,.97-1.22,1.72-1.12,.8,.11,1.4,.76,1.41,1.57,0,2.09,0,4.19,0,6.28,0,.57,0,1.13,0,1.7,0,.93-.69,1.64-1.59,1.65-.91,0-1.61-.71-1.62-1.65,0-.8,0-1.6,0-2.4,0-.15-.03-.27-.12-.39-1.26-1.67-2.52-3.35-3.77-5.02-.08-.11-.17-.16-.31-.16-1.47,0-2.94,0-4.41,0-.15,0-.24,.04-.33,.16-1.25,1.68-2.51,3.35-3.77,5.02-.08,.11-.12,.22-.12,.36,0,2.89,0,5.77,0,8.66,0,.17,.04,.22,.21,.22,4.13,0,8.26,0,12.39,0,.17,0,.23-.04,.22-.22-.01-.46,0-.92,0-1.38,0-.91,.71-1.61,1.6-1.62,.89,0,1.59,.7,1.61,1.6,0,.47,0,.93,0,1.4,0,.13,.01,.19,.18,.21,.83,.1,1.42,.77,1.43,1.57,0,.81-.57,1.49-1.4,1.6-.21,.03-.21,.11-.21,.26,0,4.69,0,9.38,0,14.07,0,.75-.36,1.33-.99,1.59-.12,.05-.26,.03-.36,.12H31.64Zm9.96-9.59c0-2.07,0-4.14,0-6.21,0-.16-.02-.23-.21-.23-.93,.01-1.87,.01-2.8,0-.17,0-.2,.06-.2,.21,0,4.13,0,8.26,0,12.39,0,.2,.06,.23,.24,.23,.92,0,1.84-.01,2.75,0,.2,0,.22-.06,.22-.24,0-2.05,0-4.11,0-6.16Zm4.81,0c0-2.07,0-4.14,0-6.21,0-.19-.04-.24-.23-.23-.3,.02-.6,0-.9,0q-.48,0-.48,.48c0,4.04,0,8.08,0,12.12,0,.19,.04,.24,.23,.23,.37-.02,.75-.02,1.13,0,.21,.01,.26-.05,.26-.26,0-2.04,0-4.09,0-6.13Zm-7.98-27.27h3.2c-.09-.12-.15-.19-.21-.26-.19-.21-.41-.4-.64-.56-.98-.68-.57-.69-1.56,.02-.3,.21-.57,.46-.79,.8Z"/><path class="c" d="M35.19,41.55c0-2.64,2.17-4.8,4.81-4.8,2.65,0,4.8,2.16,4.8,4.81,0,2.66-2.16,4.81-4.82,4.81-2.64,0-4.79-2.17-4.79-4.82Zm6.41,.02c0-.88-.72-1.61-1.6-1.61-.87,0-1.59,.71-1.6,1.58,0,.89,.71,1.62,1.59,1.62,.89,0,1.61-.71,1.61-1.6Z"/><path class="c" d="M33.59,57.57c0,.88-.72,1.61-1.6,1.61-.87,0-1.6-.72-1.6-1.59,0-.9,.7-1.6,1.6-1.6,.9,0,1.6,.69,1.6,1.57Z"/><path class="b" d="M41.6,57.6c0,2.05,0,4.11,0,6.16,0,.18-.03,.24-.22,.24-.92-.01-1.84-.01-2.75,0-.18,0-.24-.03-.24-.23,0-4.13,0-8.26,0-12.39,0-.15,.03-.21,.2-.21,.93,0,1.87,.01,2.8,0,.19,0,.21,.06,.21,.23,0,2.07,0,4.14,0,6.21Z"/><path class="b" d="M46.41,57.61c0,2.04,0,4.09,0,6.13,0,.21-.05,.27-.26,.26-.37-.02-.75-.02-1.13,0-.19,0-.23-.05-.23-.23,0-4.04,0-8.08,0-12.12q0-.47,.48-.48c.3,0,.6,.01,.9,0,.19-.01,.23,.05,.23,.23,0,2.07,0,4.14,0,6.21Z"/><path class="b" d="M38.43,30.34c.22-.35,.5-.59,.79-.8,.99-.71,.58-.7,1.56-.02,.23,.16,.45,.35,.64,.56,.06,.07,.11,.14,.21,.26h-3.2Z"/><path class="b" d="M41.6,41.57c0,.88-.73,1.6-1.61,1.6-.88,0-1.6-.74-1.59-1.62,0-.87,.73-1.58,1.6-1.58,.88,0,1.6,.72,1.6,1.61Z"/></g></svg>