<?xml version="1.0" encoding="utf-8"?>
<!-- Generator: Adobe Illustrator 26.1.0, SVG Export Plug-In . SVG Version: 6.00 Build 0)  -->
<svg version="1.1" id="a" xmlns="http://www.w3.org/2000/svg" xmlns:xlink="http://www.w3.org/1999/xlink" x="0px" y="0px"
	 viewBox="0 0 80 80" style="enable-background:new 0 0 80 80;" xml:space="preserve">
<style type="text/css">
	.st0{fill:#D3A476;}
	.st1{fill:#444444;}
</style>
<path class="st0" d="M11,0h58c6.1,0,11,4.9,11,11v58c0,6.1-4.9,11-11,11H11C4.9,80,0,75.1,0,69V11C0,4.9,4.9,0,11,0z"/>
<g>
	<path class="st1" d="M40,58.6c-8.6,0-17.2,0-25.8,0c-1,0-1.4-0.5-1.4-1.5c0.1-2.1,0.2-4.3,0.3-6.4c0.1-2.6,0.3-5.2,0.4-7.7
		c0.1-2.1,0.2-4.2,0.3-6.3c0.1-2.9,0.3-5.8,0.5-8.8c0-0.8,0.1-1.6,0.5-2.3c0.8-1.4,2-2.2,3.6-2.2c2.1,0,4.1,0,6.2,0
		c2.2,0,4,1.7,4.1,4c0,1.1,0.1,2.2,0.2,3.4c0,0.3,0.2,0.2,0.3,0.2c3.6,0,7.1,0,10.7,0c3.7,0,7.3,0,11,0c0.2,0,0.3,0,0.3-0.3
		c0-1.3,0.1-2.5,0.2-3.8c0.3-2,1.9-3.4,4-3.5c2.1,0,4.2,0,6.2,0c2.2,0,4,1.7,4.1,4c0.1,2.6,0.3,5.1,0.4,7.7c0.1,2.5,0.3,5,0.4,7.5
		s0.3,5.1,0.4,7.6c0.1,2.4,0.2,4.8,0.4,7.2c0,0.8-0.5,1.3-1.3,1.3c-3.2,0-6.5,0-9.7,0C50.8,58.6,45.4,58.6,40,58.6z M58.5,56.4
		c2,0,4.1,0,6.1,0c0.2,0,0.3,0,0.3-0.3c-0.1-2.5-0.3-5.1-0.4-7.6c-0.1-2-0.2-4-0.3-6c-0.2-3-0.3-5.9-0.5-8.9c-0.1-2-0.2-4.1-0.3-6.1
		c-0.1-1-0.8-1.7-1.7-1.7c-2.1,0-4.2,0-6.3,0c-1,0-1.7,0.7-1.7,1.7c-0.1,2-0.2,4-0.3,6c-0.1,2.5-0.3,5-0.4,7.5
		c-0.2,3-0.3,5.9-0.5,8.8c-0.1,2.1-0.2,4.2-0.3,6.3c0,0.2,0,0.3,0.3,0.3C54.4,56.3,56.4,56.4,58.5,56.4z M27.2,41.8
		c-0.1-1.8-0.2-3.6-0.3-5.4c-0.1-3-0.3-5.9-0.5-8.9c-0.1-1.2-0.7-1.9-1.9-1.9c-2,0-3.9,0-5.9,0c-0.2,0-0.4,0-0.6,0
		c-0.8,0.2-1.3,0.9-1.4,1.8c-0.1,2.5-0.3,5.1-0.4,7.6c-0.2,3.7-0.4,7.3-0.6,11c-0.2,3.3-0.3,6.6-0.5,10c0,0.3,0.1,0.3,0.3,0.3
		c2.2,0,4.3,0,6.4,0c1.9,0,3.8,0,5.8,0c0.1,0,0.3,0.1,0.3-0.2c-0.1-0.7-0.1-1.5-0.1-2.2C27.6,49.9,27.4,45.9,27.2,41.8L27.2,41.8z
		 M50.4,44.8L50.4,44.8c0-0.1,0-0.3,0-0.4c0.2-3.6,0.4-7.3,0.6-10.9c0-0.2,0-0.3-0.2-0.3c-1.2,0-2.4,0-3.6,0c-0.2,0-0.2,0-0.2,0.2
		c0,0.6,0,1.3,0,1.9c0,0.2,0,0.4-0.1,0.5c-0.2,0.5-0.7,0.8-1.2,0.7c-0.6-0.1-1-0.5-1-1.1c0-0.7,0-1.3,0-2c0-0.2,0-0.3-0.3-0.3
		c-1,0-2,0-2.9,0c-0.2,0-0.3,0-0.3,0.3c0,0.6,0,1.3,0,1.9c0,0.2,0,0.4-0.1,0.6c-0.2,0.5-0.7,0.8-1.2,0.7c-0.6-0.1-0.9-0.5-1-1.1
		c0-0.7,0-1.4,0-2.1c0-0.2,0-0.2-0.2-0.2c-1,0-2,0-3.1,0c-0.2,0-0.2,0.1-0.2,0.2c0,0.6,0,1.3,0,1.9c0,0.2,0,0.4-0.1,0.5
		c-0.2,0.5-0.7,0.8-1.2,0.7c-0.6-0.1-1-0.5-1-1.2s0-1.3,0-2c0-0.2,0-0.3-0.3-0.3c-1.2,0-2.4,0-3.6,0c-0.2,0-0.3,0.1-0.3,0.3
		c0.2,3.6,0.4,7.3,0.6,10.9c0.2,3.9,0.4,7.8,0.6,11.7c0,0.2,0.1,0.2,0.3,0.2c1.2,0,2.3,0,3.5,0c0.2,0,0.3-0.1,0.3-0.3
		c0-2.3,0-4.5,0-6.8c0-0.3-0.1-0.6-0.3-0.8s-0.4-0.5-0.5-0.8c-0.5-1-0.8-2-0.6-3.1c0.2-1,0.8-1.8,1.6-2.5c1.5-1.4,3.3-2.3,5.2-3
		c0.3-0.1,0.5-0.1,0.8,0c0.6,0.2,1.3,0.5,1.9,0.8c1.4,0.7,2.7,1.5,3.7,2.6c0.7,0.8,1.2,1.6,1.2,2.7c0,1.3-0.5,2.5-1.3,3.5
		c-0.1,0.1-0.2,0.2-0.2,0.4c0,2.4,0,4.8,0,7.1c0,0.2,0,0.2,0.2,0.2c1.2,0,2.4,0,3.6,0c0.2,0,0.2-0.1,0.2-0.2c0-0.8,0.1-1.7,0.1-2.6
		C50.1,50.6,50.2,47.7,50.4,44.8L50.4,44.8z M36.5,52.2c0,1.3,0,2.5,0,3.8c0,0.2,0,0.3,0.3,0.3c2.1,0,4.2,0,6.4,0
		c0.2,0,0.3-0.1,0.3-0.3c0-2.5,0-5,0-7.5c0-0.4,0.1-0.7,0.4-1c0.2-0.2,0.4-0.5,0.6-0.8c0.8-1.6,0.6-2.2-0.5-3.2c0,0,0,0-0.1-0.1
		c-1.1-1-2.4-1.7-3.8-2.2c-0.1-0.1-0.2,0-0.3,0c-0.8,0.4-1.7,0.8-2.4,1.3s-1.5,1-2,1.7c-0.2,0.3-0.4,0.7-0.3,1.1
		c0.1,0.8,0.4,1.5,0.9,2c0.4,0.4,0.5,0.8,0.5,1.3C36.5,49.9,36.5,51,36.5,52.2z"/>
	<path class="st0" d="M58.5,56.4c-2,0-4.1,0-6.1,0c-0.3,0-0.3-0.1-0.3-0.3c0.1-2.1,0.2-4.2,0.3-6.3c0.2-3,0.3-5.9,0.5-8.9
		c0.1-2.5,0.3-5,0.4-7.5c0.1-2,0.2-4,0.3-6c0-1,0.8-1.7,1.7-1.7c2.1,0,4.2,0,6.3,0c1,0,1.7,0.7,1.7,1.7c0.1,2,0.2,4.1,0.3,6.1
		c0.2,3,0.3,5.9,0.5,8.9c0.1,2,0.2,4,0.3,6c0.1,2.5,0.3,5.1,0.4,7.6c0,0.3-0.1,0.3-0.3,0.3C62.5,56.4,60.5,56.4,58.5,56.4z
		 M61.8,33.4c0-0.2,0-0.5,0-0.7c0-0.7-0.5-1.1-1.1-1.2c-0.6,0-1.1,0.5-1.1,1.1c0,0.5,0,1,0,1.5c0,0.7,0.5,1.1,1.2,1.1
		c0.6,0,1.1-0.5,1.1-1.2C61.8,33.9,61.8,33.7,61.8,33.4L61.8,33.4z M57.4,33.4c0-0.3,0-0.5,0-0.8c0-0.6-0.5-1.1-1.1-1.1
		s-1.1,0.5-1.1,1.1c0,0.5,0,1.1,0,1.6c0,0.6,0.5,1.1,1.2,1.1c0.6,0,1.1-0.5,1.1-1.1C57.5,34,57.4,33.7,57.4,33.4L57.4,33.4z"/>
	<path class="st0" d="M27.2,41.8c0.2,4,0.4,8.1,0.6,12.1c0,0.7,0.1,1.5,0.1,2.2c0,0.3-0.1,0.2-0.3,0.2c-1.9,0-3.8,0-5.8,0
		c-2.1,0-4.3,0-6.4,0c-0.2,0-0.3,0-0.3-0.3c0.2-3.3,0.4-6.6,0.5-10c0.2-3.7,0.4-7.3,0.6-11c0.1-2.5,0.3-5,0.4-7.6
		c0-0.9,0.5-1.6,1.4-1.8c0.2,0,0.4,0,0.6,0c2,0,3.9,0,5.9,0c1.2,0,1.9,0.7,1.9,1.9c0.1,3,0.3,5.9,0.5,8.9C27,38.2,27.1,40,27.2,41.8
		z M20.5,33.5L20.5,33.5c0-0.3,0-0.5,0-0.8c0-0.6-0.5-1.1-1.1-1.1s-1.1,0.4-1.2,1c0,0.6,0,1.1,0,1.7c0,0.6,0.5,1.1,1.1,1.1
		s1.1-0.5,1.1-1.1C20.5,34,20.5,33.7,20.5,33.5L20.5,33.5z M22.6,33.4L22.6,33.4c0,0.3,0,0.5,0,0.8c0,0.6,0.5,1.1,1.1,1.1
		s1.1-0.4,1.2-1c0-0.6,0-1.1,0-1.7c0-0.6-0.5-1.1-1.1-1.1s-1.1,0.5-1.1,1.1C22.6,32.9,22.6,33.1,22.6,33.4L22.6,33.4z"/>
	<path class="st0" d="M50.4,44.8c-0.2,2.9-0.3,5.8-0.5,8.8c0,0.8-0.1,1.7-0.1,2.6c0,0.2,0,0.2-0.2,0.2c-1.2,0-2.4,0-3.6,0
		c-0.2,0-0.2-0.1-0.2-0.2c0-2.4,0-4.8,0-7.1c0-0.2,0.1-0.3,0.2-0.4c0.8-1,1.3-2.2,1.3-3.5c0-1.1-0.5-1.9-1.2-2.7
		c-1-1.2-2.3-1.9-3.7-2.6c-0.6-0.3-1.2-0.6-1.9-0.8c-0.3-0.1-0.5-0.1-0.8,0c-1.9,0.7-3.7,1.6-5.2,3c-0.8,0.7-1.4,1.5-1.6,2.5
		c-0.2,1.1,0.1,2.1,0.6,3.1c0.2,0.3,0.3,0.6,0.5,0.8s0.3,0.5,0.3,0.8c0,2.3,0,4.5,0,6.8c0,0.2-0.1,0.3-0.3,0.3c-1.2,0-2.3,0-3.5,0
		c-0.2,0-0.3,0-0.3-0.2c-0.2-3.9-0.4-7.8-0.6-11.7c-0.2-3.6-0.4-7.3-0.6-10.9c0-0.2,0-0.3,0.3-0.3c1.2,0,2.4,0,3.6,0
		c0.2,0,0.3,0.1,0.3,0.3c0,0.7,0,1.3,0,2c0,0.6,0.4,1.1,1,1.2c0.5,0.1,1-0.2,1.2-0.7c0.1-0.2,0.1-0.4,0.1-0.5c0-0.6,0-1.3,0-1.9
		c0-0.2,0-0.2,0.2-0.2c1,0,2,0,3.1,0c0.2,0,0.2,0,0.2,0.2c0,0.7,0,1.4,0,2.1c0,0.6,0.4,1,1,1.1c0.5,0.1,1-0.2,1.2-0.7
		c0.1-0.2,0.1-0.4,0.1-0.6c0-0.6,0-1.3,0-1.9c0-0.2,0.1-0.3,0.3-0.3c1,0,2,0,2.9,0c0.3,0,0.3,0.1,0.3,0.3c0,0.7,0,1.3,0,2
		c0,0.6,0.4,1,1,1.1c0.5,0.1,1-0.2,1.2-0.7c0.1-0.2,0.1-0.3,0.1-0.5c0-0.6,0-1.3,0-1.9c0-0.2,0-0.2,0.2-0.2c1.2,0,2.4,0,3.6,0
		c0.2,0,0.3,0.1,0.2,0.3c-0.2,3.6-0.4,7.3-0.6,10.9C50.4,44.5,50.4,44.7,50.4,44.8L50.4,44.8L50.4,44.8z"/>
	<path class="st0" d="M36.5,52.2c0-1.2,0-2.4,0-3.6c0-0.5-0.1-0.9-0.5-1.3c-0.5-0.5-0.8-1.2-0.9-2c-0.1-0.4,0-0.8,0.3-1.1
		c0.5-0.7,1.2-1.2,2-1.7s1.6-0.9,2.4-1.3c0.1,0,0.2-0.1,0.3,0c1.3,0.6,2.6,1.3,3.8,2.2c0,0,0,0,0.1,0.1c1,1,1.3,1.6,0.5,3.2
		c-0.2,0.3-0.3,0.5-0.6,0.8s-0.4,0.6-0.4,1c0,2.5,0,5,0,7.5c0,0.2,0,0.3-0.3,0.3c-2.1,0-4.2,0-6.4,0c-0.3,0-0.3-0.1-0.3-0.3
		C36.5,54.8,36.5,53.5,36.5,52.2z"/>
	<path class="st1" d="M61.8,33.4c0,0.2,0,0.5,0,0.7c0,0.7-0.5,1.2-1.1,1.2s-1.1-0.5-1.2-1.1c0-0.5,0-1,0-1.5c0-0.7,0.5-1.1,1.1-1.1
		s1.1,0.5,1.1,1.2C61.8,32.9,61.8,33.2,61.8,33.4L61.8,33.4z"/>
	<path class="st1" d="M57.4,33.4c0,0.3,0,0.5,0,0.8c0,0.6-0.5,1.1-1.1,1.1s-1.1-0.5-1.2-1.1c0-0.5,0-1.1,0-1.6
		c0-0.6,0.5-1.1,1.1-1.1s1.1,0.5,1.1,1.1C57.4,32.9,57.4,33.1,57.4,33.4L57.4,33.4z"/>
	<path class="st1" d="M20.5,33.5c0,0.3,0,0.5,0,0.8c0,0.6-0.5,1.1-1.1,1.1s-1.1-0.4-1.1-1.1c0-0.6,0-1.1,0-1.7c0-0.6,0.5-1.1,1.2-1
		c0.6,0,1,0.5,1.1,1.1C20.5,32.9,20.5,33.2,20.5,33.5L20.5,33.5L20.5,33.5z"/>
	<path class="st1" d="M22.6,33.4c0-0.2,0-0.5,0-0.8c0-0.6,0.5-1.1,1.1-1.1s1.1,0.4,1.1,1.1c0,0.6,0,1.1,0,1.7c0,0.6-0.5,1.1-1.2,1
		c-0.6,0-1.1-0.5-1.1-1.1C22.5,34,22.6,33.7,22.6,33.4L22.6,33.4L22.6,33.4z"/>
</g>
</svg>
