<?xml version="1.0" encoding="UTF-8"?><svg id="a" xmlns="http://www.w3.org/2000/svg" viewBox="0 0 80 80"><defs><style>.b{fill:#ddd6a1;}.c{fill:#444;}</style></defs><rect class="b" width="80" height="80" rx="11" ry="11"/><g><path class="c" d="M40,62.37c5.78,0,11.55,0,17.33,0,1.32,0,2.65,0,3.97,0,.54,0,.98-.38,1.06-.9,.08-.5-.23-1.01-.72-1.17-.19-.06-.39-.07-.59-.05-.16,.01-.24-.05-.31-.18-.86-1.45-1.73-2.89-2.6-4.34-.07-.11-.11-.22-.14-.34-.65-2.59-1.3-5.19-1.95-7.78-.03-.12-.03-.25,0-.37,.24-1.21,.5-2.42,.73-3.64,.04-.21,.1-.19,.25-.1,.4,.25,.74,.56,1.01,.95,.06,.08,.09,.17,.1,.27,.1,1.75,.4,3.46,.9,5.14,.34,1.15,.78,2.27,1.3,3.36,.22,.47,.64,.69,1.14,.62,.43-.05,.78-.39,.88-.84,.08-.34-.06-.63-.2-.93-1.11-2.37-1.74-4.85-1.89-7.46-.03-.51-.05-1.01-.17-1.51-.34-1.46-.94-2.81-1.61-4.14-1.25-2.46-2.7-4.79-4.51-6.88-.47-.55-.98-1.07-1.6-1.45-.74-.45-1.28-1.07-1.66-1.84-.27-.55-.59-1.08-.99-1.55-.64-.75-1.44-1.13-2.43-1.08-.98,.05-1.75,.53-2.41,1.21-.68,.69-1.22,1.5-1.68,2.34-.51,.93-1.27,1.48-2.27,1.76-.44,.12-.89,.22-1.32,.35-.79,.24-1.58,.48-2.28,.91-.85,.52-1.58,1.2-2.19,1.98-.47,.6-.94,1.21-1.46,1.77-.26,.27-.52,.54-.84,.73-.2,.12-.37,.11-.54-.06-.48-.48-.84-1.02-.97-1.7-.1-.52-.1-1.04-.06-1.57,.09-1.17,.22-2.33,.24-3.51,.02-1.71-.54-3.18-1.72-4.4-.11-.11-.11-.19-.04-.32,.19-.35,.37-.71,.54-1.06,.25-.5,.19-.96-.15-1.31-.34-.35-.81-.41-1.31-.16-.56,.27-1.12,.55-1.67,.83-.1,.05-.19,.09-.31,.08-.65-.08-1.24,.1-1.8,.44-.37,.22-.77,.39-1.15,.58-.16,.08-.32,.13-.49,.18-1.27,.32-2.54,.63-3.81,.95-.23,.06-.43,.17-.6,.34-.33,.33-.66,.66-.99,.99-.24,.23-.35,.52-.35,.85,0,.67,0,1.33,0,2,0,.1,0,.2,.03,.3,.13,.56,.54,.77,1.06,.87,1.53,.29,3.05,.6,4.57,.91,.38,.08,.73,.51,.73,.89,0,1.85,0,3.69,0,5.54,0,.42-.03,.84,.01,1.25,.22,2.25,1.05,4.26,2.5,6,1.17,1.39,2.63,2.41,4.22,3.24,.18,.1,.24,.18,.17,.39-.19,.62-.41,1.24-.5,1.87-.2,1.37-.32,2.76-.47,4.14-.16,1.41-.32,2.83-.47,4.24-.02,.19-.07,.26-.28,.25-1.83-.01-3.66,0-5.49,0-1.65,0-3.3,0-4.94,0-.7,0-1.2,.5-1.15,1.16,.05,.58,.51,.98,1.17,.98,7.07,0,14.13,0,21.2,0Zm10.65-44.74c-2.46,0-4.93,0-7.39,0-1.09,0-2.18,0-3.27,0-.5,0-.93,.35-1.04,.82-.11,.49,.13,.99,.58,1.21,.2,.1,.41,.11,.63,.11,4.26,0,8.52,0,12.78,0,2.74,0,5.48,0,8.21,0,.37,0,.7-.09,.94-.38,.29-.34,.35-.73,.16-1.14-.2-.43-.56-.62-1.02-.62-3.53,0-7.06,0-10.59,0Zm5.32,5.33c1.74,0,3.48,0,5.22,0,.41,0,.75-.12,.99-.47,.23-.35,.26-.72,.06-1.09-.2-.39-.54-.58-.98-.58-2.11,0-4.23,0-6.34,0-1.41,0-2.83,0-4.24,0-.66,0-1.15,.51-1.1,1.15,.04,.57,.51,.98,1.15,.98,1.75,0,3.49,0,5.24,0Zm1.61,3.2c.9,0,1.8,0,2.7,0,.34,0,.68,0,1.02,0,.62-.02,1.08-.49,1.07-1.09,0-.59-.48-1.04-1.11-1.04-.43,0-.87,0-1.3,0-2.02,0-4.04,0-6.06,0-.52,0-.92,.29-1.07,.74-.23,.71,.29,1.39,1.08,1.39,1.22,0,2.45,0,3.67,0Z"/><path class="c" d="M40,62.37c-7.07,0-14.13,0-21.2,0-.66,0-1.13-.39-1.17-.98-.05-.65,.44-1.16,1.15-1.16,1.65,0,3.3,0,4.94,0,1.83,0,3.66,0,5.49,0,.21,0,.26-.06,.28-.25,.15-1.41,.31-2.83,.47-4.24,.15-1.38,.27-2.76,.47-4.14,.09-.64,.31-1.25,.5-1.87,.07-.21,0-.3-.17-.39-1.59-.84-3.06-1.85-4.22-3.24-1.45-1.74-2.28-3.75-2.5-6-.04-.41-.01-.83-.01-1.25,0-1.85,0-3.69,0-5.54,0-.39-.35-.82-.73-.89-1.52-.3-3.04-.61-4.57-.91-.52-.1-.93-.31-1.06-.87-.02-.1-.03-.2-.03-.3,0-.67,0-1.33,0-2,0-.33,.11-.62,.35-.85,.33-.33,.66-.66,.99-.99,.17-.17,.37-.28,.6-.34,1.27-.32,2.54-.63,3.81-.95,.17-.04,.33-.1,.49-.18,.38-.2,.78-.36,1.15-.58,.56-.33,1.15-.51,1.8-.44,.11,.01,.21-.03,.31-.08,.56-.28,1.11-.56,1.67-.83,.5-.24,.97-.18,1.31,.16,.34,.35,.4,.81,.15,1.31-.18,.36-.35,.71-.54,1.06-.07,.13-.07,.21,.04,.32,1.18,1.23,1.74,2.7,1.72,4.4-.02,1.18-.15,2.34-.24,3.51-.04,.52-.04,1.05,.06,1.57,.13,.68,.49,1.22,.97,1.7,.17,.17,.34,.18,.54,.06,.33-.19,.59-.46,.84-.73,.52-.56,.99-1.16,1.46-1.77,.61-.79,1.34-1.47,2.19-1.98,.7-.43,1.5-.67,2.28-.91,.44-.13,.88-.23,1.32-.35,1-.27,1.76-.82,2.27-1.76,.46-.85,1-1.65,1.68-2.34,.67-.68,1.43-1.15,2.41-1.21,1-.06,1.8,.33,2.43,1.08,.4,.47,.72,1,.99,1.55,.38,.77,.92,1.39,1.66,1.84,.63,.38,1.13,.9,1.6,1.45,1.81,2.09,3.26,4.42,4.51,6.88,.67,1.33,1.27,2.68,1.61,4.14,.12,.5,.14,1,.17,1.51,.15,2.61,.78,5.1,1.89,7.46,.14,.3,.28,.59,.2,.93-.1,.44-.45,.78-.88,.84-.5,.06-.91-.16-1.14-.62-.52-1.08-.96-2.2-1.3-3.36-.5-1.68-.8-3.39-.9-5.14,0-.11-.04-.19-.1-.27-.27-.39-.61-.7-1.01-.95-.14-.09-.21-.11-.25,.1-.23,1.22-.48,2.43-.73,3.64-.02,.12-.03,.24,0,.37,.65,2.59,1.3,5.19,1.95,7.78,.03,.12,.08,.23,.14,.34,.87,1.44,1.74,2.89,2.6,4.34,.08,.13,.16,.19,.31,.18,.2-.02,.4,0,.59,.05,.49,.16,.81,.67,.72,1.17-.09,.52-.52,.9-1.06,.9-1.32,0-2.65,0-3.97,0-5.78,0-11.55,0-17.33,0Zm16.82-4.59l.03,.08c.06-.03,.02-.07,0-.11-.21-.36-.42-.72-.64-1.07-.1-.17-.19-.35-.24-.54-.29-1.15-.57-2.3-.86-3.45-.15-.61-.31-1.22-.48-1.9-.27,.62-.5,1.17-.74,1.72-.04,.1,.02,.16,.05,.23,.55,1.11,1.12,2.22,1.67,3.34,.31,.63,.77,1.15,1.2,1.7Zm-17.5-8.86c.29-.07,.58-.15,.87-.21,.36-.08,.71-.23,1.1-.17,.75,.11,1.5,.22,2.24,.32,1.23,.18,2.47,.35,3.7,.53,.19,.03,.22-.03,.21-.2-.01-.22-.02-.45,0-.67,.06-.58-.11-1.08-.37-1.59-.56-1.06-1.09-2.15-1.62-3.22-.31-.64-.03-1.33,.62-1.53,.52-.16,1.03,.07,1.3,.61,.67,1.34,1.34,2.69,2.02,4.03,.13,.25,.19,.51,.19,.79,0,1.71,.01,3.43,0,5.14,0,.66,.06,1.29,.28,1.91,.13,.38,.22,.76,.33,1.15,.14,.48,.28,.96,.42,1.45,.04-.71,.05-1.42,.04-2.12,0-.29,.06-.55,.17-.82,1-2.32,2-4.65,2.99-6.97,.05-.12,.1-.25,.12-.38,.33-1.62,.64-3.24,.97-4.86,.16-.78,.57-1.08,1.36-1.02,.33,.03,.65,.1,.98,.17-.01-.05-.02-.08-.03-.1-1.17-2.54-2.61-4.91-4.34-7.11-.49-.62-.99-1.23-1.69-1.65-1.04-.62-1.81-1.49-2.35-2.58-.21-.42-.44-.82-.74-1.18-.31-.37-.65-.45-1.09-.24-.34,.16-.6,.41-.84,.69-.48,.57-.86,1.2-1.24,1.83-.31,.5-.62,.99-1.06,1.38-.56,.48-1.2,.82-1.9,1.08-.73,.27-1.52,.36-2.25,.64-.58,.22-1.19,.38-1.68,.79-.6,.49-1.11,1.04-1.59,1.65-.67,.86-1.35,1.72-2.24,2.37-1.26,.92-2.54,.8-3.62-.32-1.18-1.22-1.6-2.7-1.51-4.36,.07-1.27,.24-2.53,.27-3.81,.03-1.38-.49-2.47-1.62-3.26-.28-.19-.45-.44-.5-.77-.02-.12-.06-.14-.17-.15-.41-.02-.8,.02-1.17,.25-.25,.16-.53,.28-.8,.4-.32,.15-.63,.34-.98,.42-1.15,.28-2.29,.57-3.43,.86-.65,.16-.92,.5-.92,1.16,0,.04,0,.08,0,.12-.02,.13,.03,.18,.17,.21,1.34,.26,2.67,.54,4.01,.79,.41,.08,.75,.24,1.03,.55,.24,.27,.49,.52,.76,.76,.31,.28,.43,.63,.43,1.05,0,2.21,.01,4.43,0,6.64-.01,1.22,.29,2.35,.79,3.44,.94,2.04,2.54,3.44,4.48,4.49,.16,.09,.17,.01,.21-.11,.39-1.35,.7-2.72,.93-4.1,.1-.58,.66-1.01,1.22-.93,.57,.09,.98,.64,.87,1.19-.45,2.37-1,4.71-1.66,7.03-.16,.55-.35,1.09-.46,1.65-.11,.58-.14,1.17-.21,1.76-.03,.26-.06,.52-.09,.79,.12-.12,.15-.27,.18-.42,.11-.56,.39-1.02,.77-1.45,1.07-1.21,2.11-2.44,3.16-3.67,.93-1.09,1.86-2.17,2.79-3.26,.4-.47,1.01-.55,1.47-.21,.51,.38,.58,1.07,.15,1.58-.48,.58-.97,1.16-1.46,1.73-.02,0-.05,.01-.03,.04,0,0,.04,0,.06,0Zm9.89,11.29s0-.04,0-.05c-.38-1.35-.73-2.71-1.17-4.04-.45-1.4-.72-2.81-.6-4.28,0-.02,0-.03,0-.05,.04-.19-.07-.23-.23-.26-1.73-.24-3.45-.5-5.18-.73-.41-.06-.81-.19-1.23-.06-.54,.16-1.09,.29-1.64,.41-.18,.04-.23,.11-.23,.3,0,1.76,0,3.53,0,5.29,0,.12,.01,.25,.04,.37,.24,.96,.48,1.91,.71,2.87,.05,.19,.11,.26,.32,.26,2.99,0,5.97,0,8.96,0,.08,0,.16,.02,.24-.02Zm-14.89-5.01c-.47,1.64-.93,3.27-1.4,4.89-.05,.18,.05,.15,.15,.15,.98,0,1.96,0,2.94,0,.23,0,.26-.04,.18-.25-.61-1.56-1.3-3.08-1.81-4.68,0-.03-.03-.06-.06-.1Zm18.53,.03l-.08,.03c0,1.61,0,3.22,0,4.83,0,.17,.09,.14,.19,.14,.82,0,1.65,0,2.47,0,.16,0,.32,0,.56,0-1.27-1.58-2.45-3.14-3.14-5Zm-16.07-3.46c-.31,.36-.58,.68-.86,1-.06,.07-.1,.12-.07,.22,.3,.89,.6,1.78,.9,2.67h.03v-3.9Z"/><path class="c" d="M50.65,17.63c3.53,0,7.06,0,10.59,0,.47,0,.82,.19,1.02,.62,.19,.41,.13,.8-.16,1.14-.24,.29-.57,.38-.94,.38-2.74,0-5.48,0-8.21,0-4.26,0-8.52,0-12.78,0-.22,0-.43-.01-.63-.11-.45-.22-.69-.72-.58-1.21,.11-.47,.54-.81,1.04-.82,1.09,0,2.18,0,3.27,0,2.46,0,4.93,0,7.39,0Z"/><path class="c" d="M55.97,22.96c-1.75,0-3.49,0-5.24,0-.64,0-1.1-.41-1.15-.98-.05-.64,.44-1.15,1.1-1.15,1.41,0,2.83,0,4.24,0,2.11,0,4.23,0,6.34,0,.44,0,.77,.19,.98,.58,.19,.37,.17,.74-.06,1.09-.23,.35-.58,.47-.99,.47-1.74,0-3.48,0-5.22,0Z"/><path class="c" d="M57.58,26.16c-1.22,0-2.45,0-3.67,0-.79,0-1.31-.68-1.08-1.39,.14-.46,.55-.74,1.07-.74,2.02,0,4.04,0,6.06,0,.43,0,.87,0,1.3,0,.63,0,1.1,.45,1.11,1.04,0,.6-.44,1.06-1.07,1.09-.34,.01-.68,0-1.02,0-.9,0-1.8,0-2.7,0Z"/><path class="b" d="M39.29,48.88c.49-.58,.97-1.16,1.46-1.73,.43-.51,.36-1.2-.15-1.58-.46-.34-1.07-.26-1.47,.21-.93,1.08-1.86,2.17-2.79,3.26-1.05,1.23-2.09,2.46-3.16,3.67-.38,.43-.65,.89-.77,1.45-.03,.15-.06,.3-.18,.42,.03-.26,.06-.52,.09-.79,.07-.59,.09-1.18,.21-1.76,.11-.56,.3-1.1,.46-1.65,.66-2.32,1.21-4.66,1.66-7.03,.11-.56-.3-1.11-.87-1.19-.57-.09-1.12,.34-1.22,.93-.23,1.39-.54,2.75-.93,4.1-.04,.12-.05,.2-.21,.11-1.94-1.05-3.54-2.44-4.48-4.49-.5-1.09-.8-2.22-.79-3.44,.02-2.21,0-4.43,0-6.64,0-.42-.12-.76-.43-1.05-.26-.24-.52-.49-.76-.76-.28-.32-.62-.47-1.03-.55-1.34-.26-2.67-.53-4.01-.79-.14-.03-.19-.07-.17-.21,0-.04,0-.08,0-.12,0-.66,.27-1,.92-1.16,1.14-.29,2.29-.58,3.43-.86,.35-.09,.66-.27,.98-.42,.27-.13,.55-.24,.8-.4,.36-.23,.75-.27,1.17-.25,.11,0,.15,.03,.17,.15,.05,.33,.23,.58,.5,.77,1.14,.79,1.66,1.88,1.62,3.26-.03,1.27-.2,2.54-.27,3.81-.09,1.66,.33,3.14,1.51,4.36,1.08,1.12,2.36,1.24,3.62,.32,.89-.65,1.57-1.51,2.24-2.37,.47-.61,.99-1.16,1.59-1.65,.49-.4,1.1-.56,1.68-.79,.73-.28,1.51-.38,2.25-.64,.69-.25,1.34-.6,1.9-1.08,.44-.38,.76-.88,1.06-1.38,.39-.63,.77-1.27,1.24-1.83,.24-.28,.5-.54,.84-.69,.44-.2,.78-.13,1.09,.24,.3,.36,.53,.76,.74,1.18,.53,1.09,1.31,1.96,2.35,2.58,.7,.42,1.2,1.03,1.69,1.65,1.73,2.2,3.17,4.57,4.34,7.11,.01,.02,.01,.05,.03,.1-.33-.08-.65-.15-.98-.17-.79-.06-1.21,.24-1.36,1.02-.33,1.62-.65,3.24-.97,4.86-.03,.13-.07,.26-.12,.38-.99,2.33-1.99,4.65-2.99,6.97-.11,.27-.17,.53-.17,.82,0,.71,0,1.41-.04,2.12-.14-.48-.28-.96-.42-1.45-.11-.38-.2-.77-.33-1.15-.21-.62-.28-1.25-.28-1.91,.02-1.71,0-3.43,0-5.14,0-.28-.06-.54-.19-.79-.68-1.34-1.34-2.69-2.02-4.03-.27-.54-.78-.77-1.3-.61-.65,.21-.94,.89-.62,1.53,.53,1.08,1.06,2.16,1.62,3.22,.27,.51,.44,1.01,.37,1.59-.02,.22-.01,.45,0,.67,.01,.17-.02,.23-.21,.2-1.23-.18-2.47-.36-3.7-.53-.75-.11-1.5-.21-2.24-.32-.39-.06-.74,.09-1.1,.17-.29,.06-.58,.14-.87,.21,0-.01-.02-.02-.03-.04Z"/><path class="b" d="M49.22,60.21c-.08,.04-.16,.02-.24,.02-2.99,0-5.97,0-8.96,0-.21,0-.28-.07-.32-.26-.23-.96-.47-1.92-.71-2.87-.03-.12-.04-.24-.04-.37,0-1.76,0-3.53,0-5.29,0-.19,.05-.25,.23-.3,.55-.12,1.1-.25,1.64-.41,.42-.12,.83,0,1.23,.06,1.73,.23,3.45,.49,5.18,.73,.16,.02,.27,.06,.23,.26,0,.02,0,.03,0,.05-.12,1.47,.15,2.88,.6,4.28,.43,1.33,.78,2.69,1.17,4.04,0,.02,0,.03,0,.05Z"/><path class="b" d="M34.33,55.2s.05,.07,.06,.1c.5,1.6,1.2,3.13,1.81,4.68,.08,.21,.05,.26-.18,.25-.98-.01-1.96,0-2.94,0-.1,0-.2,.03-.15-.15,.47-1.62,.93-3.24,1.4-4.89Z"/><path class="c" d="M52.86,55.23c.69,1.87,1.87,3.42,3.14,5-.24,0-.4,0-.56,0-.82,0-1.65,0-2.47,0-.1,0-.19,.03-.19-.14,0-1.61,0-3.22,0-4.83l.08-.03Z"/><path class="b" d="M56.82,57.78c-.43-.55-.89-1.07-1.2-1.7-.55-1.12-1.11-2.22-1.67-3.34-.03-.07-.1-.13-.05-.23,.24-.55,.48-1.11,.74-1.72,.17,.68,.33,1.29,.48,1.9,.29,1.15,.57,2.3,.86,3.45,.05,.2,.14,.37,.24,.54,.22,.35,.42,.71,.64,1.07-.01,0-.03,.02-.04,.03Z"/><path class="b" d="M36.79,51.77v3.89h-.03c-.3-.89-.6-1.78-.9-2.67-.03-.1,.01-.15,.07-.22,.28-.32,.55-.64,.86-1Z"/><path class="c" d="M56.86,57.75s.05,.08,0,.11l-.03-.08s.02-.02,.04-.03Z"/><path class="c" d="M39.32,48.92s-.05,.01-.06,0c-.02-.03,.01-.03,.03-.04,.01,.01,.02,.02,.03,.04Z"/></g></svg>