<?xml version="1.0" encoding="UTF-8"?><svg id="Layer_1" xmlns="http://www.w3.org/2000/svg" xmlns:xlink="http://www.w3.org/1999/xlink" viewBox="0 0 218.12 314.44"><defs><style>.cls-1{fill:url(#linear-gradient);}.cls-2{fill:#fff;}.cls-3,.cls-4{fill:#2b2e4a;}.cls-4{font-family:Montserrat-Regular, Montserrat;font-size:24.62px;}</style><linearGradient id="linear-gradient" x1="1.14" y1="118.13" x2="215.81" y2="118.13" gradientUnits="userSpaceOnUse"><stop offset="0" stop-color="#240a10"/><stop offset=".26" stop-color="#250f19"/><stop offset=".69" stop-color="#282033"/><stop offset="1" stop-color="#2b2e4a"/></linearGradient></defs><path class="cls-1" d="M13.88,236.24c.24,.01,.48,.02,.73,.02H202.34c7.44,0,13.46-6.03,13.46-13.46V13.46c0-7.44-6.03-13.46-13.46-13.46H14.61C7.17,0,1.14,6.03,1.14,13.46V222.8c0,7.19,5.64,13.07,12.74,13.44"/><path class="cls-2" d="M13.64,236.23c1.32-1.28,3.27-3.12,5.67-5.27,18.95-16.97,36.74-25.91,50.77-33.66,25.23-13.93,51.74-25.22,77.97-37.09,10.29-4.65,20.88-8.74,30.25-15.17,9.42-6.46,15.22-15.29,15.93-26.92,.83-13.73-3.43-26.41-8.49-38.89-.13-.33-.16-.93-.91-.65-.03,.38-.08,.8-.08,1.22,0,5.06-.77,9.99-2.42,14.77-3.91,11.34-11.94,18.92-22.51,23.86-20.07,9.36-40.24,18.49-60.4,27.66-6.63,3.02-13.06,6.46-19.89,9.03-2.3,.87-4.72,.96-6.55-1.12-2.73-3.12-4.95-6.61-5.21-10.85-.82-13.29,3.45-24.46,13.94-33.04,7.6-6.21,16.57-9.81,25.41-13.68,10.21-4.47,20.58-8.59,30.44-13.81,17.73-9.37,24.79-23.47,21.63-43.19-1.46-9.08-4.48-17.73-7.85-26.25-.23-.58-.52-1.1-1.31-1.54-.24,3.48-.01,6.83-.58,10.15-1.71,10.04-6.33,18.29-14.42,24.56-7.55,5.86-16.3,9.42-24.99,13.08-10.33,4.35-20.89,8.22-30.63,13.86-7.3,4.23-13.58,9.57-17.79,17.06-4.81,8.54-5.17,17.72-3.81,27.11,1.77,12.28,4.57,24.32,8.38,36.12,2.34,7.27,2.32,7.34-3.97,11.8-18.1,12.81-34.07,27.83-47.2,45.77-4.35,5.94-8.43,12.06-12.01,18.48l.38,.61,.29,.41,.32,.42,.09,.12,.1,.13,.09,.11,.07,.09,.1,.12,.1,.11,.09,.1,.08,.09,.13,.14,.07,.07,.12,.12,.1,.1,.06,.06,.15,.14,.08,.07,.09,.08,.18,.16,.39,.33,.16,.13,.17,.14,.15,.11,.15,.11,.2,.14,.13,.09,.22,.15,.17,.11,.21,.13,.2,.12,.16,.09,.14,.08,.14,.07,.08,.05,.19,.09,.12,.06,.12,.06,.15,.07,.13,.06,.24,.1,.16,.07,.16,.06,.17,.07,.12,.05,.13,.05,.3,.1,.1,.03,.09,.03,.13,.04,.25,.07,.07,.02,.3,.08,.22,.05,.41,.09,.29,.06,.36,.05s.09,.01,.14,.02l.19,.02,.14,.02,.2,.02h.09"/><path class="cls-2" d="M27.54,38.18c-.19-1.58,.19-3.18,.72-4.75,.28-.84,.87-1.22,1.77-1.3,1.16-.1,.98,.83,1.17,1.43,1.3,3.95,5.1,4.86,8.13,1.94,1.83-1.76,2.57-4.11,3.28-6.43,.99-3.22,2.02-3.59,4.43-1.39,2.7,2.46,6.82,1.53,8.1-1.87,.65-1.74,1.24-3.52,1.31-5.4,.06-1.55,1-1.91,2.29-1.92,1.66,0,1.08,1.28,1.03,2.04-.25,4.1-.79,8.14-3.11,11.69-2.83,4.34-6.93,5.84-11.87,4.28-.92-.29-1.21-.05-1.59,.74-1.16,2.4-2.57,4.65-4.74,6.29-2.47,1.87-5.29,2.39-8.1,1.17-2.71-1.18-3.01-3.78-2.82-6.51Z"/><g><path class="cls-3" d="M9.84,273.56c-6.27,0-8.62-2.89-8.62-7.46,0-4.21,2.6-8.07,8.52-8.07,3.79,0,6.72,1.12,6.72,1.12v11.06h3.15v3.34H9.84Zm-5.3-19.74c0-1.19,.93-2.19,2.12-2.19s2.15,.96,2.15,2.19-.93,2.19-2.15,2.19-2.12-.96-2.12-2.19Zm7.81,8.13s-1.22-.58-3.05-.58c-2.41,0-3.83,1.83-3.83,4.34,0,2.93,1.45,4.5,4.82,4.5h2.06v-8.26Zm-2.48-8.13c0-1.19,.93-2.19,2.12-2.19s2.12,.96,2.12,2.19-.93,2.19-2.12,2.19-2.12-.96-2.12-2.19Z"/><path class="cls-3" d="M19.13,270.22h6.04v-11.77h4.24v15.11h-10.29v-3.34Zm2.73,10.35c-1.19,0-2.12-.96-2.12-2.19s.93-2.19,2.12-2.19,2.15,.96,2.15,2.19-.93,2.19-2.15,2.19Zm5.34,0c-1.19,0-2.12-.96-2.12-2.19s.93-2.19,2.12-2.19,2.12,.96,2.12,2.19-.93,2.19-2.12,2.19Z"/><path class="cls-3" d="M33.27,270.22h9.55c-.19-4.76-2.54-7.72-7.59-9l1.03-3.54c6.98,1.83,10.71,5.79,10.71,13.76v2.12h-13.7v-3.34Z"/><path class="cls-3" d="M50.05,281.25l.26-3.47s2.51,.55,5.02,.55c3.34,0,5.56-1.25,5.56-4.28v-.48h-2.51c-6.27,0-8.62-2.89-8.62-7.46,0-4.21,2.6-8.07,8.52-8.07,3.79,0,6.72,1.12,6.72,1.12v11.06h3.18v3.34h-3.18v.06c0,4.44-2.86,8.04-10.06,8.04-2.41,0-4.89-.42-4.89-.42Zm10.83-19.29s-1.22-.58-3.05-.58c-2.41,0-3.83,1.83-3.83,4.34,0,2.93,1.45,4.5,4.82,4.5h2.06v-8.26Z"/><path class="cls-3" d="M67.67,270.22h1.13c3.05,0,5.53-.35,7.49-1-2.06-1.93-3.95-3.92-6.75-4.69l.35-3.02c2.54-1.83,6.11-3.57,9.29-3.57,4.79,0,6.78,2.48,6.78,5.27,0,2.15-1.12,4.37-3.28,6.17,1.06,.51,2.22,.84,3.57,.84h2.12v3.34h-2.6c-2.8,0-4.89-.84-6.62-1.99-2.73,1.22-6.3,1.99-10.61,1.99h-.87v-3.34Zm12.09-2.8c1.35-1.06,1.99-2.35,1.99-3.67,0-1.51-1-2.7-3.05-2.7-1.74,0-3.73,1.16-4.89,1.93,2.22,.9,3.99,2.8,5.95,4.44Z"/><path class="cls-3" d="M87.89,270.22h1.03c2.09,0,2.89-.84,2.89-4.02v-5.82h4.24v6.37c0,2.41,.55,3.73,2.44,3.73s2.38-1.38,2.38-3.7v-7.68h4.05v7.56c0,2.67,.71,3.57,3.54,3.57h1.12c.13-1.29,.23-2.86,.23-3.86,0-3.21-.39-6.17-.93-8.62l4.15-.58c.61,2.57,1.03,5.72,1.03,8.91,0,2.35-.19,5.21-.48,7.49h-5.98c-2.8,0-4.5-.64-5.21-2.38-.77,1.8-2.64,2.67-4.66,2.67-2.35,0-4.02-1-4.57-2.67-.58,1.54-1.9,2.38-4.28,2.38h-1v-3.34Z"/><path class="cls-3" d="M133.96,273.56c-6.27,0-8.62-2.89-8.62-7.46,0-4.21,2.6-8.07,8.52-8.07,3.79,0,6.72,1.12,6.72,1.12v11.06h3.15v3.34h-9.77Zm-5.3-19.74c0-1.19,.93-2.19,2.12-2.19s2.15,.96,2.15,2.19-.93,2.19-2.15,2.19-2.12-.96-2.12-2.19Zm7.81,8.13s-1.22-.58-3.05-.58c-2.41,0-3.83,1.83-3.83,4.34,0,2.93,1.45,4.5,4.82,4.5h2.06v-8.26Zm-2.48-8.13c0-1.19,.93-2.19,2.12-2.19s2.12,.96,2.12,2.19-.93,2.19-2.12,2.19-2.12-.96-2.12-2.19Z"/><path class="cls-3" d="M143.25,270.22h4.92c-1.42-.84-2.51-2.64-2.51-4.79,0-3.99,2.73-7.39,8.42-7.39,2.15,0,3.99,.61,3.99,.61l-.74,3.38s-1.48-.67-3.34-.67c-2.41,0-4.05,1.61-4.05,4.08,0,2.73,2.22,4.79,7.3,4.79h2.51v3.34h-16.49v-3.34Z"/><path class="cls-3" d="M163.63,250.9h4.24v19.32h3.21v3.34h-7.46v-22.67Z"/><path class="cls-3" d="M170.61,270.22h4.5v-11.77h4.24v11.77h3.15v3.34h-11.9v-3.34Zm4.4-16.69c0-1.22,1-2.22,2.22-2.22s2.22,1,2.22,2.22-1,2.22-2.22,2.22-2.22-.96-2.22-2.22Z"/><path class="cls-3" d="M204.53,270.22h2.96v3.34h-25.46v-3.34h3.92v-11.77h4.24v.8c0,1.41-.1,3.21-.35,4.76h.03c1.58-3.79,4.82-5.98,8.26-5.98,4.44,0,6.53,2.96,6.53,7.78,0,1.45-.03,2.96-.13,4.4Zm-7.27-8.78c-3.44,0-6.3,4.28-7.11,8.78h10c.1-1.29,.16-2.76,.16-3.92,0-3.02-.77-4.86-3.05-4.86Z"/><path class="cls-3" d="M207,270.22h4.5v-11.77h4.24v15.11h-8.75v-3.34Zm2.03,8.17c0-1.22,1-2.22,2.22-2.22s2.22,.96,2.22,2.22-1,2.22-2.22,2.22-2.22-.96-2.22-2.22Z"/></g><text class="cls-4" transform="translate(.13 307.99)"><tspan x="0" y="0">SAUDI INDUSTRY</tspan></text></svg>