<?xml version="1.0" encoding="UTF-8"?><svg id="a" xmlns="http://www.w3.org/2000/svg" xmlns:xlink="http://www.w3.org/1999/xlink" viewBox="0 0 96.98 114.35"><defs><style>.f{fill:url(#e);}.g{fill:url(#d);}.h{fill:url(#c);}.i{fill:url(#b);}.j{fill:#fefefe;}.k{fill:#fdfdfd;}.l{fill:none;stroke:#fff;stroke-miterlimit:10;stroke-width:2px;}</style><linearGradient id="b" x1="15.15" y1="64.38" x2="73.95" y2="64.38" gradientTransform="matrix(1, 0, 0, 1, 0, 0)" gradientUnits="userSpaceOnUse"><stop offset="0" stop-color="#2a0008"/><stop offset=".24" stop-color="#2a0611"/><stop offset=".63" stop-color="#2a182b"/><stop offset="1" stop-color="#2a2d49"/></linearGradient><linearGradient id="c" x1="43.15" y1="32.88" x2="73.95" y2="32.88" xlink:href="#b"/><linearGradient id="d" x1="57.15" y1="37.08" x2="73.95" y2="37.08" xlink:href="#b"/><linearGradient id="e" x1="61.35" y1="41.28" x2="73.95" y2="41.28" xlink:href="#b"/></defs><g/><g><path class="i" d="M44.55,90.28c-9.28,0-18.57,0-27.85,0-.86,0-1.48-.52-1.54-1.28-.07-.85,.59-1.52,1.51-1.52,2.15,0,4.31,0,6.46,0,2.41,0,4.81,0,7.22,0,.3,0,.38-.09,.41-.37,.19-1.85,.41-3.69,.61-5.54,.2-1.81,.36-3.63,.62-5.44,.12-.84,.41-1.65,.66-2.46,.09-.29,.01-.39-.22-.52-2.11-1.1-4.04-2.44-5.57-4.28-1.91-2.29-2.98-4.93-3.28-7.89-.01-.11,0-.22,0-.33,0-2.87,0-5.73,0-8.6,0-.46-.47-1.05-.93-1.14-1.89-.38-3.79-.76-5.68-1.13-.22-.04-.45-.09-.67-.14-.65-.15-1.11-.69-1.11-1.36,0-.94,0-1.88,0-2.82,0-.38,.14-.7,.41-.97,.46-.47,.93-.93,1.39-1.39,.21-.21,.48-.34,.77-.41,1.67-.41,3.34-.83,5.01-1.25,.21-.05,.42-.12,.61-.22,.53-.28,1.09-.51,1.6-.81,.7-.41,1.43-.62,2.25-.53,.17,.02,.32-.04,.47-.12,.72-.37,1.44-.72,2.17-1.08,.66-.32,1.27-.25,1.72,.21,.46,.46,.53,1.07,.21,1.72-.24,.49-.48,.98-.74,1.46-.08,.14-.06,.22,.05,.34,1.63,1.68,2.35,3.7,2.28,6.04-.05,1.48-.21,2.94-.32,4.41-.06,.8-.06,1.59,.16,2.37,.22,.77,.67,1.39,1.24,1.93,.21,.2,.42,.18,.65,.04,.44-.26,.79-.62,1.14-.98,.7-.74,1.32-1.55,1.94-2.35,.8-1.01,1.73-1.89,2.83-2.56,.93-.57,1.98-.89,3.03-1.21,.49-.15,.99-.26,1.49-.39,.59-.15,1.13-.39,1.66-.67,.41-.21,.74-.5,.99-.88,.54-.83,1.08-1.67,1.63-2.49,.53-.78,1.14-1.49,1.89-2.07,1.45-1.12,3.36-1.24,4.74-.31,.6,.4,1.05,.95,1.44,1.55,.3,.47,.58,.95,.83,1.45,.48,.95,1.17,1.7,2.08,2.25,.85,.52,1.54,1.22,2.17,1.98,3.31,3.97,5.95,8.34,7.67,13.24,.36,1.02,.5,2.07,.56,3.15,.18,3.49,1.04,6.8,2.54,9.96,.17,.35,.29,.71,.2,1.1-.14,.59-.6,1.02-1.17,1.09-.65,.08-1.19-.21-1.48-.8-.8-1.64-1.44-3.34-1.92-5.1-.54-2-.88-4.03-.99-6.1,0-.11-.03-.21-.1-.3-.38-.55-.86-.99-1.43-1.33-.16-.1-.21-.06-.25,.12-.32,1.63-.65,3.25-.98,4.88-.03,.15-.02,.3,.01,.45,.85,3.4,1.7,6.79,2.55,10.19,.04,.16,.09,.31,.18,.45,1.15,1.91,2.29,3.81,3.43,5.73,.1,.17,.21,.25,.41,.23,.26-.02,.52-.01,.78,.07,.64,.21,1.04,.86,.95,1.51-.1,.7-.68,1.22-1.4,1.22-1.75,0-3.5,0-5.25,0-7.58,0-15.16,0-22.74,0Z"/><path class="h" d="M58.56,31.48c4.64,0,9.27,0,13.91,0,1.04,0,1.73,.92,1.4,1.86-.21,.6-.73,.94-1.46,.94-2.72,0-5.45,0-8.17,0-6.49,0-12.97,0-19.46,0-.28,0-.55-.02-.8-.13-.6-.27-.93-.92-.8-1.57,.12-.61,.69-1.1,1.33-1.1,1.02-.01,2.03,0,3.05,0,3.66,0,7.33,0,10.99,0Z"/><path class="g" d="M65.58,35.68c2.32,0,4.64,0,6.95,0,.63,0,1.16,.39,1.34,.96,.19,.59-.02,1.22-.51,1.57-.27,.19-.57,.27-.89,.27-4.61,0-9.23,0-13.84,0-.86,0-1.49-.61-1.48-1.42,0-.8,.64-1.38,1.51-1.38,2.31,0,4.61,0,6.92,0Z"/><path class="f" d="M67.65,39.88c1.6,0,3.19,0,4.79,0,.87,0,1.5,.58,1.51,1.39,0,.81-.62,1.42-1.48,1.42-3.21,0-6.43,0-9.64,0-.86,0-1.49-.62-1.48-1.42,0-.79,.64-1.38,1.48-1.38,1.61,0,3.21,0,4.82,0Z"/><path class="k" d="M43.51,72.65c.72-.85,1.39-1.62,2.05-2.41,.36-.43,.46-.91,.24-1.44-.21-.51-.6-.8-1.14-.87-.52-.06-.93,.14-1.27,.53-1.95,2.28-3.9,4.55-5.85,6.82-.73,.85-1.46,1.72-2.2,2.56-.32,.36-.55,.75-.65,1.22-.09,.4-.23,.78-.35,1.19,.12-2.21,.52-4.34,1.16-6.44,.85-2.81,1.46-5.68,2.01-8.57,.14-.72-.39-1.42-1.13-1.55-.74-.12-1.49,.44-1.62,1.2-.31,1.82-.71,3.62-1.23,5.39-.04,.13-.02,.3-.26,.17-2.7-1.46-4.88-3.41-6.08-6.31-.55-1.32-.87-2.69-.86-4.13,.03-2.9,0-5.8,.01-8.69,0-.56-.15-1.02-.57-1.4-.35-.32-.69-.65-1-1-.37-.42-.82-.61-1.36-.72-1.76-.34-3.51-.7-5.27-1.04-.17-.03-.23-.09-.21-.25,0-.05,.01-.11,0-.16-.15-.62,.23-.99,.64-1.35,.11-.1,.24-.11,.36-.14,1.61-.4,3.22-.8,4.82-1.21,.19-.05,.37-.13,.55-.21,.57-.28,1.15-.53,1.69-.85,.49-.29,1-.34,1.54-.32,.13,0,.19,.02,.21,.17,.07,.47,.34,.8,.73,1.07,1.45,1.03,2.11,2.44,2.07,4.22-.04,1.67-.26,3.33-.35,5-.13,2.19,.42,4.15,1.99,5.76,1.42,1.46,3.07,1.62,4.73,.43,.94-.68,1.68-1.56,2.42-2.44,.47-.56,.9-1.15,1.38-1.71,.94-1.07,2.1-1.77,3.46-2.2,.93-.29,1.88-.47,2.8-.78,1.72-.58,3.08-1.6,3.99-3.2,.5-.87,1.03-1.72,1.68-2.5,.31-.37,.66-.71,1.1-.91,.57-.26,1.03-.16,1.43,.33,.39,.47,.7,1,.97,1.55,.7,1.43,1.72,2.57,3.09,3.39,.91,.55,1.57,1.35,2.21,2.17,2.25,2.87,4.15,5.96,5.67,9.28,.02,.05,.04,.1,.08,.2-.5-.15-.98-.23-1.47-.25-.86-.04-1.42,.38-1.59,1.22-.44,2.18-.87,4.37-1.31,6.55-.03,.16-.09,.31-.16,.46-1.31,3.06-2.61,6.11-3.93,9.16-.15,.35-.23,.7-.22,1.08,0,.92,0,1.85-.06,2.78-.27-.94-.54-1.87-.81-2.81-.06-.21-.11-.42-.18-.63-.27-.79-.36-1.6-.35-2.44,.03-2.29,0-4.57,.01-6.86,0-.28-.04-.54-.16-.79-.92-1.84-1.84-3.69-2.77-5.53-.3-.59-.81-.85-1.45-.78-.54,.06-1.01,.46-1.16,1.02-.1,.37-.04,.73,.14,1.08,.83,1.66,1.65,3.32,2.48,4.97,.08,.16,.12,.32,.12,.5,0,.58,0,1.16,0,1.74,0,.19-.02,.26-.25,.23-1.93-.29-3.87-.56-5.8-.83-.68-.1-1.36-.19-2.04-.3-.52-.08-.99,.12-1.48,.23-.39,.09-.78,.19-1.27,.32Z"/><path class="j" d="M50.45,87.47c-1.97,0-3.94,0-5.9,0-.24,0-.34-.06-.39-.3-.3-1.26-.62-2.52-.93-3.78-.05-.18-.07-.36-.07-.55,0-2.31,0-4.61,0-6.92,0-.23,.04-.34,.3-.4,.73-.16,1.47-.34,2.19-.55,.57-.16,1.11,.02,1.65,.09,2.24,.3,4.48,.64,6.71,.95,.26,.04,.38,.11,.35,.4-.26,2.29,.4,4.42,1.06,6.57,.42,1.39,.8,2.79,1.21,4.18,.07,.24,.05,.31-.23,.3-1.98-.01-3.96,0-5.94,0Z"/><path class="j" d="M39.66,87.46h-4.45l1.9-6.66c.73,2.31,1.72,4.44,2.55,6.66Z"/><path class="j" d="M65.58,87.47c-.31,0-.51,0-.71,0-1.09,0-2.19,0-3.28,0-.13,0-.24,.02-.24-.19,.01-2.11,0-4.22,.01-6.33,0,0,.01-.01,.09-.08,.91,2.47,2.46,4.52,4.14,6.6Z"/><path class="k" d="M66.7,84.35c-.13-.17-.25-.36-.39-.52-1.13-1.3-1.74-2.91-2.53-4.41-.31-.6-.61-1.2-.91-1.81-.05-.09-.12-.17-.06-.3,.32-.72,.63-1.45,.98-2.26,.29,1.17,.56,2.25,.83,3.32,.31,1.25,.62,2.49,.93,3.74,.13,.52,.48,.93,.73,1.38,.15,.27,.32,.54,.48,.8l-.06,.05Z"/><path class="k" d="M40.34,76.34v5.09h-.04c-.16-.45-.32-.92-.47-1.39-.23-.67-.44-1.34-.68-2.01-.05-.15-.05-.26,.06-.38,.37-.41,.73-.84,1.13-1.32Z"/></g><rect class="l" x="1.02" y="17.41" width="87.07" height="87.07" rx="3.31" ry="3.31"/></svg>