<?xml version="1.0" encoding="UTF-8"?><svg id="a" xmlns="http://www.w3.org/2000/svg" xmlns:xlink="http://www.w3.org/1999/xlink" viewBox="0 0 96.98 114.35"><defs><style>.e{fill:url(#d);}.f{fill:url(#c);}.g{fill:url(#b);}.h{fill:#f5f5f5;}.i{fill:none;stroke:#fff;stroke-miterlimit:10;stroke-width:2px;}</style><linearGradient id="b" x1="31.32" y1="60.04" x2="57.78" y2="60.04" gradientTransform="matrix(1, 0, 0, 1, 0, 0)" gradientUnits="userSpaceOnUse"><stop offset="0" stop-color="#2a0008"/><stop offset=".24" stop-color="#2a0611"/><stop offset=".63" stop-color="#2a182b"/><stop offset="1" stop-color="#2a2d49"/></linearGradient><linearGradient id="c" x1="38.88" y1="60.04" x2="50.22" y2="60.04" xlink:href="#b"/><linearGradient id="d" x1="33.21" y1="78.95" x2="36.99" y2="78.95" xlink:href="#b"/></defs><g/><rect class="i" x="1.02" y="17.41" width="87.07" height="87.07" rx="3.31" ry="3.31"/><g><path class="g" d="M34.81,90.28c-.34-.11-.69-.23-.96-.48-.4-.37-.63-.83-.63-1.38,0-1.28-.01-2.56,0-3.84,0-1.03,.85-1.85,1.87-1.86,1.04,0,1.89,.81,1.91,1.85,.01,.57,.01,1.14,0,1.71,0,.19,.06,.23,.23,.22,.46-.01,.93-.02,1.39,0,.24,.01,.28-.07,.28-.29,0-3.67,0-7.34,0-11.01,0-1.19,0-2.38,0-3.57,0-.21-.05-.26-.26-.26-.48,.02-.96,.01-1.45,0-.16,0-.2,.05-.19,.2,0,.55,0,1.1,0,1.65,0,1.09-.83,1.93-1.89,1.93-1.05,0-1.88-.84-1.89-1.93,0-.55,0-1.1,0-1.65,0-.14-.02-.19-.18-.21-1.01-.13-1.72-.92-1.71-1.89,0-.96,.71-1.74,1.71-1.86,.25-.03,.18-.17,.18-.3,0-4.15,0-8.3,0-12.46,0-1.44,0-2.87,0-4.31,0-.93,.71-1.7,1.64-1.83,.88-.13,1.76,.43,2.04,1.3,.05,.16,.08,.32,.11,.49,.09,0,.1-.09,.14-.14,.53-.71,1.06-1.42,1.6-2.12,.09-.12,.13-.25,.13-.4,0-.48-.04-.97,.02-1.44,.13-1.02,.66-1.83,1.34-2.57,.64-.7,1.39-1.27,2.2-1.77,.16-.1,.22-.21,.22-.4,0-1.45-.01-2.89,0-4.34,0-.24-.08-.34-.29-.42-2.04-.81-3.47-2.9-3.5-5.1,0-1.01,.53-1.71,1.52-1.97,.03,0,.05-.03,.08-.04h.59c1.06,.18,1.61,.81,1.67,1.91,.05,.76,.39,1.33,1.11,1.64,.67,.29,1.3,.16,1.86-.27,.45-.35,.63-.86,.66-1.43,.03-.71,.34-1.26,.95-1.64,.23-.14,.48-.16,.72-.21h.59c.87,.23,1.44,.74,1.58,1.66,.07,.51,0,1.02-.13,1.52-.48,1.89-1.63,3.21-3.43,3.96-.17,.07-.2,.16-.2,.32,0,1.48,0,2.95,0,4.43,0,.17,.05,.26,.2,.35,.92,.58,1.77,1.24,2.48,2.08,.74,.88,1.21,1.87,1.1,3.05-.06,.64,.12,1.15,.54,1.63,.47,.55,.88,1.15,1.34,1.77,.09-.81,.44-1.38,1.15-1.7,1.23-.55,2.64,.34,2.64,1.69,.02,3.18,.01,6.36,0,9.54,0,1.02-.87,1.84-1.89,1.84-1.02,0-1.87-.82-1.88-1.84-.01-.98,0-1.97,0-2.95,0-.17-.04-.3-.14-.43-1.48-1.97-2.97-3.94-4.44-5.92-.11-.14-.21-.19-.39-.19-1.73,0-3.46,0-5.2,0-.16,0-.26,.04-.37,.18-1.49,1.99-2.98,3.98-4.48,5.97-.08,.11-.12,.21-.12,.35,0,3.42,0,6.85,0,10.27,0,.19,.04,.24,.24,.24,4.88,0,9.76,0,14.64,0,.18,0,.25-.04,.25-.24-.02-.55-.01-1.1,0-1.65,.01-1.06,.85-1.9,1.89-1.89,1.03,0,1.87,.83,1.88,1.88,0,.55,0,1.1,0,1.65,0,.17,.01,.24,.22,.27,.98,.12,1.67,.91,1.67,1.86,0,.95-.68,1.75-1.66,1.88-.22,.03-.24,.11-.23,.29,0,2.61,0,5.22,0,7.82,0,2.84,0,5.69,0,8.53,0,1.33-.35,1.84-1.59,2.28h-19.49Z"/><path class="f" d="M44.55,65.71c-3.12,0-5.66-2.54-5.67-5.66,0-3.12,2.54-5.67,5.66-5.67,3.12,0,5.68,2.53,5.68,5.65,0,3.14-2.54,5.69-5.67,5.69Z"/><path class="e" d="M35.09,80.83c-1.04,0-1.89-.87-1.88-1.91,0-1.04,.84-1.86,1.9-1.85,1.07,0,1.89,.84,1.88,1.89-.01,1.02-.87,1.87-1.9,1.86Z"/><path class="h" d="M42.66,78.94c0-2.43,0-4.86,0-7.29,0-.22,.05-.28,.27-.27,1.09,.01,2.18,.01,3.28,0,.19,0,.24,.05,.24,.24,0,4.88,0,9.76,0,14.64,0,.19-.04,.24-.24,.24-1.09-.01-2.18-.01-3.28,0-.22,0-.27-.05-.27-.27,0-2.43,0-4.86,0-7.29Z"/><path class="h" d="M50.22,78.91c0-2.42,0-4.84,0-7.26,0-.22,.05-.28,.27-.27,.45,.02,.91,.02,1.36,0,.22,0,.27,.05,.27,.27,0,4.55,0,9.09,0,13.64,0,.34,0,.69,0,1.03,0,.14-.04,.18-.18,.18-.48,0-.96-.02-1.45,0-.22,0-.27-.05-.27-.27,0-2.44,0-4.88,0-7.32Z"/><path class="h" d="M46.44,46.81h-3.71c.03-.16,.15-.26,.26-.37,.42-.44,.91-.8,1.43-1.14,.07-.05,.13-.09,.23-.03,.47,.24,1.5,1.1,1.79,1.54Z"/><path class="h" d="M46.44,60.06c0,1.04-.87,1.89-1.91,1.88-1.04,0-1.88-.87-1.87-1.92,.01-1.03,.86-1.86,1.89-1.86,1.04,0,1.89,.86,1.88,1.9Z"/></g></svg>