<?xml version="1.0" encoding="UTF-8"?><svg id="a" xmlns="http://www.w3.org/2000/svg" xmlns:xlink="http://www.w3.org/1999/xlink" viewBox="0 0 96.98 114.35"><defs><style>.g{fill:url(#e);}.h{fill:url(#d);}.i{fill:url(#f);}.j{fill:url(#c);}.k{fill:url(#b);}.l{fill:#f5f5f5;}.m{fill:none;stroke:#fff;stroke-miterlimit:10;stroke-width:2px;}</style><linearGradient id="b" x1="13.36" y1="63.37" x2="76.01" y2="63.37" gradientTransform="matrix(1, 0, 0, 1, 0, 0)" gradientUnits="userSpaceOnUse"><stop offset="0" stop-color="#2a0008"/><stop offset=".24" stop-color="#2a0611"/><stop offset=".63" stop-color="#2a182b"/><stop offset="1" stop-color="#2a2d49"/></linearGradient><linearGradient id="c" x1="19.58" y1="54.61" x2="22.21" y2="54.61" xlink:href="#b"/><linearGradient id="d" x1="24.61" y1="54.61" x2="27.23" y2="54.61" xlink:href="#b"/><linearGradient id="e" x1="67.16" y1="54.61" x2="69.79" y2="54.61" xlink:href="#b"/><linearGradient id="f" x1="62.14" y1="54.61" x2="64.76" y2="54.61" xlink:href="#b"/></defs><g/><rect class="m" x="1.02" y="17.41" width="87.07" height="87.07" rx="3.31" ry="3.31"/><g><path class="k" d="M44.65,83.62c-9.9,0-19.79,0-29.69,0-1.18,0-1.66-.55-1.59-1.73,.14-2.45,.26-4.9,.39-7.35,.16-2.94,.31-5.88,.46-8.82,.13-2.4,.25-4.81,.38-7.21,.16-2.95,.31-5.9,.47-8.85,.04-.83,.05-1.66,.15-2.48,.31-2.33,2.19-4.01,4.55-4.03,2.42-.03,4.84-.03,7.26,0,2.56,.03,4.52,2,4.61,4.55,.05,1.31,.14,2.61,.2,3.92,0,.15,.04,.22,.2,.2,.06,0,.12,0,.18,0,8.3,0,16.59,0,24.89,0,.3,0,.41-.05,.42-.38,.06-1.45,.08-2.9,.26-4.33,.3-2.3,2.21-3.94,4.54-3.96,2.41-.02,4.81-.02,7.22,0,2.59,.03,4.54,2.01,4.65,4.59,.12,2.94,.3,5.88,.46,8.82,.13,2.41,.25,4.83,.38,7.24,.15,2.93,.31,5.86,.46,8.78,.13,2.4,.25,4.81,.38,7.21,.04,.72,.07,1.45,.12,2.17,.07,1.08-.45,1.65-1.53,1.65-9.94,0-19.89,0-29.83,0Z"/><path class="l" d="M29.9,64.27c.22,4.21,.45,8.42,.67,12.63,.07,1.28,.12,2.57,.21,3.85,.02,.34-.19,.25-.35,.25-3.95,0-7.9,0-11.85,0-.76,0-1.52,0-2.28,0-.22,0-.27-.05-.26-.28,.23-4.3,.45-8.61,.67-12.91,.26-4.9,.51-9.8,.77-14.7,.09-1.76,.19-3.52,.28-5.28,.07-1.28,.88-2.07,2.16-2.08,2.31,0,4.63,0,6.94,0,1.32,0,2.11,.82,2.18,2.13,.17,3.42,.36,6.84,.54,10.25,.11,2.04,.21,4.08,.31,6.12Z"/><path class="l" d="M59.46,64.24c.23-4.39,.47-8.77,.7-13.16,.06-1.08,.11-2.17,.16-3.26,.05-1.23,.86-2.06,2.09-2.07,2.36-.02,4.72-.01,7.08,0,1.2,0,2.03,.79,2.09,1.99,.14,2.34,.25,4.69,.37,7.03,.15,2.95,.31,5.9,.47,8.85,.13,2.4,.25,4.81,.37,7.21,.15,2.93,.31,5.86,.46,8.78,.02,.37,.02,.75,.06,1.12,.02,.21-.05,.25-.25,.25-.5-.01-1,0-1.51,0-4.21,0-8.41,0-12.62,0-.32,0-.37-.08-.35-.39,.14-2.27,.25-4.55,.37-6.82,.17-3.18,.33-6.37,.49-9.55Z"/><path class="l" d="M51.31,76.62c0-1.34,0-2.69,0-4.03,0-.21,.06-.37,.19-.54,.93-1.18,1.47-2.51,1.47-4.03,0-1.23-.57-2.22-1.37-3.09-1.2-1.32-2.69-2.22-4.26-3.02-.7-.35-1.41-.66-2.14-.94-.31-.12-.62-.15-.92-.03-2.18,.86-4.27,1.89-6.01,3.5-.86,.8-1.57,1.71-1.79,2.9-.23,1.27,.08,2.45,.65,3.58,.15,.29,.3,.59,.52,.83,.37,.39,.43,.83,.42,1.34-.02,2.51-.01,5.02,0,7.54,0,.29-.04,.4-.37,.4-1.33-.02-2.66-.02-4,0-.24,0-.3-.06-.32-.3-.25-4.92-.51-9.85-.77-14.77-.2-3.73-.4-7.47-.61-11.2-.02-.28,.07-.33,.32-.32,1.36,.01,2.71,.01,4.07,0,.27,0,.33,.08,.32,.33-.02,.74,0,1.47,0,2.21,0,.83,.56,1.43,1.32,1.42,.74,0,1.29-.59,1.3-1.4,0-.76,0-1.52,0-2.28,0-.21,.04-.29,.27-.28,1.17,.01,2.34,.01,3.51,0,.26,0,.28,.1,.28,.31,0,.77,0,1.54,0,2.31,0,.55,.25,.97,.75,1.21,.47,.22,.93,.17,1.35-.14,.37-.28,.52-.68,.52-1.13,0-.75,.01-1.5,0-2.24,0-.25,.07-.31,.31-.31,1.14,.01,2.29,.01,3.44,0,.25,0,.31,.08,.31,.32-.01,.77-.02,1.54,0,2.31,.01,.71,.45,1.2,1.12,1.31,.59,.1,1.17-.25,1.4-.82,.08-.2,.1-.41,.1-.62,0-.74,0-1.47,0-2.21,0-.22,.04-.3,.28-.3,1.38,.01,2.76,.01,4.14,0,.27,0,.3,.09,.28,.32-.24,4.4-.46,8.8-.7,13.19-.23,4.27-.46,8.54-.68,12.81-.01,.21-.06,.27-.28,.27-1.37-.01-2.73-.01-4.1,0-.26,0-.31-.08-.3-.32,.01-1.36,0-2.71,0-4.07Z"/><path class="l" d="M40.67,76.27c0-1.37-.02-2.73,0-4.1,.01-.59-.16-1.06-.57-1.48-.62-.63-.97-1.42-1.09-2.3-.07-.49,.06-.92,.35-1.32,.54-.72,1.25-1.26,1.99-1.75,.97-.65,2.01-1.18,3.08-1.65,.14-.06,.26-.11,.43-.03,1.35,.59,2.65,1.27,3.83,2.16,.25,.19,.5,.39,.72,.61,1.01,.99,1.22,1.57,.61,3.11-.17,.44-.43,.84-.77,1.16-.43,.41-.58,.89-.57,1.48,.02,2.83,0,5.66,.01,8.48,0,.26-.04,.35-.33,.35-2.45-.01-4.91-.01-7.36,0-.29,0-.34-.09-.33-.35,.01-1.46,0-2.92,0-4.38Z"/><path class="j" d="M22.2,54.63c0,.3,.02,.61,0,.91-.05,.73-.59,1.25-1.3,1.25-.7,0-1.27-.52-1.3-1.25-.03-.62-.03-1.24,0-1.86,.03-.72,.61-1.25,1.3-1.25,.7,0,1.25,.52,1.3,1.25,.02,.31,0,.63,0,.95Z"/><path class="h" d="M24.61,54.59c0-.29,0-.58,0-.88,.03-.72,.57-1.26,1.27-1.28,.7-.02,1.3,.51,1.33,1.22,.03,.64,.03,1.29,0,1.93-.04,.71-.63,1.22-1.34,1.21-.69-.01-1.23-.55-1.26-1.25-.01-.31,0-.63,0-.95h0Z"/><path class="g" d="M67.16,54.61c0-.3-.01-.61,0-.91,.04-.74,.6-1.27,1.32-1.26,.69,0,1.26,.55,1.28,1.27,.02,.61,.03,1.22,0,1.82-.03,.74-.6,1.27-1.32,1.26-.7,0-1.24-.53-1.28-1.27-.02-.3,0-.61,0-.91Z"/><path class="i" d="M64.76,54.62c0,.3,.01,.61,0,.91-.03,.72-.58,1.25-1.28,1.26-.7,0-1.28-.52-1.31-1.23-.02-.62-.02-1.24,0-1.86,.02-.72,.62-1.27,1.33-1.26,.7,.01,1.25,.55,1.27,1.27,.01,.3,0,.61,0,.91Z"/></g></svg>