<?xml version="1.0" encoding="UTF-8"?><svg id="a" xmlns="http://www.w3.org/2000/svg" xmlns:xlink="http://www.w3.org/1999/xlink" viewBox="0 0 96.98 114.35"><defs><style>.e{fill:url(#d);}.f{fill:url(#c);}.g{fill:url(#b);}.h{fill:#f5f5f5;}.i{fill:#fcfcfc;}.j{fill:#fdfdfd;}.k{fill:none;stroke:#fff;stroke-miterlimit:10;stroke-width:2px;}</style><linearGradient id="b" x1="19.57" y1="60.56" x2="69.52" y2="60.56" gradientTransform="matrix(1, 0, 0, 1, 0, 0)" gradientUnits="userSpaceOnUse"><stop offset="0" stop-color="#2a0008"/><stop offset=".24" stop-color="#2a0611"/><stop offset=".63" stop-color="#2a182b"/><stop offset="1" stop-color="#2a2d49"/></linearGradient><linearGradient id="c" x1="33.84" y1="86.71" x2="55.24" y2="86.71" xlink:href="#b"/><linearGradient id="d" x1="24.33" y1="46.3" x2="30.22" y2="46.3" xlink:href="#b"/></defs><g/><rect class="k" x="1.02" y="17.41" width="87.07" height="87.07" rx="3.31" ry="3.31"/><g><path class="g" d="M31.11,71.82c-.82-.44-1.58-.94-2.24-1.57-2.45-2.33-3.56-5.17-3.3-8.56,.23-3,1.63-5.34,3.96-7.18,.55-.44,1.08-.9,1.64-1.34,1.14-.9,1.79-2.1,2.17-3.48,.3-1.11,.47-2.23,.5-3.38,.02-.58,.34-1.01,.86-1.17,.53-.16,1.04,.04,1.37,.54,.68,1.05,1.27,2.15,1.76,3.31,.12-.02,.14-.14,.19-.22,.84-1.3,1.76-2.53,2.81-3.66,1.36-1.46,2.97-2.41,4.95-2.78,1.72-.32,3.46-.57,5.17-.93,1.3-.27,2.59-.56,3.81-1.11,.36-.16,.71-.36,1.03-.6,.32-.25,.57-.55,.72-.94,.22-.55,.73-.87,1.26-.8,.59,.08,.97,.52,1.05,1.15,.23,1.79,.31,3.59,.27,5.39-.03,1.31-.13,2.61-.32,3.91-.01,.09-.02,.18-.03,.33,.57-.55,1-1.13,1.35-1.78,.18-.32,.42-.56,.79-.66,.73-.18,1.41,.3,1.49,1.06,.26,2.48,.38,4.96,.27,7.45-.07,1.44-.22,2.87-.62,4.28,.33,0,.63-.07,.93-.17,.83-.28,1.53-.74,2.03-1.48,.29-.43,.84-.6,1.33-.44,.49,.15,.82,.61,.81,1.14-.01,2.02-.24,4.02-.63,6-.41,2.1-1.01,4.14-2,6.05-.59,1.14-1.29,2.19-2.2,3.09-.13,.13-.11,.18,.03,.28,.58,.43,1.14,.9,1.74,1.29,.88,.57,.89,1.57,.05,2.23-1.43,1.12-2.8,2.32-4.2,3.48-.05,.04-.09,.08-.19,.16h.34c2.74,0,5.48,0,8.22,0,.49,0,.86,.21,1.09,.65,.22,.42,.18,.85-.09,1.24-.26,.37-.65,.5-1.09,.5-2.82,0-5.65,0-8.47,0-12.92,0-25.84,0-38.76,0-.69,0-1.14-.28-1.32-.81-.27-.78,.3-1.57,1.14-1.58,2,0,3.99,0,5.99,0,1.88,0,3.77,0,5.65,0,.03-.1-.05-.14-.09-.19-1.34-1.61-2.68-3.22-4.03-4.84-.62-.74-.54-1.42,.23-1.99,.85-.64,1.71-1.28,2.58-1.93Z"/><path class="f" d="M44.51,87.9c-3.15,0-6.3,0-9.44,0-.53,0-.95-.28-1.14-.74-.19-.48-.09-.91,.26-1.28,.27-.28,.61-.36,.99-.36,3.77,0,7.54,0,11.31,0,2.49,0,4.98,0,7.47,0,.71,0,1.23,.45,1.28,1.1,.05,.71-.49,1.28-1.23,1.28-2.34,0-4.68,0-7.02,0-.83,0-1.65,0-2.48,0Z"/><path class="e" d="M30.22,45.7c-.04,1.75-.81,3.53-2.37,4.95-.65,.59-1.37,.53-1.92-.17-1.04-1.34-1.59-2.86-1.6-4.56-.02-1.54,.76-2.67,2-3.52,.54-.37,1.12-.65,1.75-.82,.58-.15,1.12,.1,1.39,.64,.47,.92,.74,2.06,.74,3.48Z"/><path class="h" d="M35.71,50.14c.31,.68,.45,1.39,.52,2.13,.05,.59,.41,1.03,.93,1.14,.55,.11,1.06-.14,1.33-.68,.98-1.87,2.09-3.65,3.45-5.27,.67-.8,1.39-1.55,2.29-2.09,.68-.41,1.46-.52,2.21-.7,1.63-.37,3.29-.56,4.92-.9,1.64-.34,3.28-.72,4.78-1.49,.53-.27,.52-.27,.54,.31,.05,1.6,.03,3.19-.17,4.78-.18,1.48-.49,2.92-1.13,4.28-.27,.58-.17,1.14,.28,1.51,.43,.35,1.01,.35,1.52,0,1.03-.72,2-1.51,2.9-2.38,.03-.03,.07-.06,.1-.08,.06,.02,.05,.06,.06,.09,.08,2.15,.1,4.29-.21,6.42-.09,.62-.22,1.24-.46,1.83-.11,.26-.25,.5-.44,.71-.36,.4-.44,.85-.21,1.34,.23,.49,.65,.69,1.18,.67,1.48-.03,2.91-.3,4.29-.83l.16-.06c.01,.44-.07,.84-.13,1.25-.28,1.96-.7,3.88-1.44,5.73-.59,1.48-1.36,2.84-2.52,3.96-.18,.17-.29,.21-.52,.04-1.97-1.5-3.96-2.98-5.94-4.46-.15-.11-.2-.18-.1-.36,.24-.47,.14-.91-.18-1.32-.96-1.2-1.92-2.41-2.89-3.61-.12-.14-.17-.29-.18-.47-.05-1.11-.11-2.23-.16-3.34-.03-.73-.4-1.15-1.12-1.27-2.33-.39-4.66-.78-7-1.17-.73-.12-1.37,.4-1.4,1.15,0,.18,0,.36,0,.61-.2-.14-.33-.24-.46-.34-.52-.37-1.12-.34-1.57,.11-1.58,1.57-3.16,3.15-4.73,4.73-.53,.53-.49,1.27,.09,1.79,1.06,.95,2.12,1.9,3.19,2.83,.2,.17,.16,.23-.02,.37-1.31,.97-2.62,1.95-3.92,2.94-.21,.16-.36,.2-.62,.07-1.42-.7-2.66-1.62-3.61-2.9-.83-1.1-1.31-2.34-1.39-3.72-.09-1.58,.09-3.11,.84-4.54,.56-1.06,1.41-1.86,2.31-2.6,.6-.5,1.21-.99,1.8-1.49,1.39-1.19,2.25-2.71,2.74-4.46,.02-.08,.03-.16,.09-.23Z"/><path class="h" d="M47.88,62.21c.05,.05,.08,.09,.12,.13,1.03,1.29,2.06,2.58,3.1,3.86,.13,.16,.03,.22-.06,.3-1.73,1.49-3.45,2.99-5.18,4.48-3.49,3.02-6.97,6.05-10.45,9.08-.19,.17-.28,.16-.44-.04-1.33-1.61-2.67-3.21-4.01-4.81-.14-.16-.12-.23,.04-.35,5.57-4.17,11.13-8.35,16.7-12.52l.18-.14Z"/><path class="h" d="M61.65,76.06c-.66,.55-1.31,1.09-1.96,1.63-1.03,.86-2.05,1.71-3.08,2.57-.13,.11-.19,.11-.32,0-2.8-2.5-5.61-5-8.43-7.49-.17-.15-.17-.22,0-.36,1.32-1.14,2.64-2.28,3.95-3.43,.14-.13,.23-.11,.37,0,2.17,1.63,4.34,3.26,6.52,4.89,.1,.07,.17,.15,.22,.27,.16,.39,.47,.61,.88,.67,.14,.02,.24,.07,.35,.15,.49,.37,.98,.73,1.48,1.11Z"/><path class="h" d="M45.74,80.77c-1.1,0-2.19,0-3.29,0-.17,0-.23-.03-.22-.22,.06-1.05,.11-2.1,.15-3.14,0-.18,.07-.3,.21-.42,1.04-.89,2.07-1.78,3.09-2.68,.12-.11,.19-.14,.33-.01,.95,.86,1.91,1.71,2.87,2.55,.12,.11,.17,.22,.18,.38,.05,1.09,.1,2.19,.16,3.28,.01,.21-.03,.28-.26,.28-1.08-.01-2.15,0-3.23,0Z"/><path class="h" d="M43.52,62.47c0,.08-.07,.1-.11,.13-1.21,.91-2.42,1.81-3.63,2.72-.12,.09-.19,.08-.3-.02-.85-.76-1.7-1.52-2.56-2.28-.14-.12-.12-.18,0-.3,.96-.95,1.91-1.9,2.86-2.85,.11-.11,.18-.1,.29-.01,1.1,.83,2.21,1.66,3.31,2.49,.05,.04,.1,.08,.14,.12Z"/><path class="h" d="M43.26,58.92c.02-.53,.02-.53,.51-.45,1.39,.23,2.78,.46,4.17,.69,.08,.01,.21-.02,.22,.12,.01,.16-.13,.11-.2,.11-.25,.03-.46,.13-.65,.28-.54,.41-1.09,.81-1.62,1.22-.12,.09-.19,.09-.31,0-.65-.5-1.31-1.01-1.98-1.49-.22-.16-.1-.35-.13-.49Z"/><path class="j" d="M51.54,79.2l1.76,1.57c-.56,0-1.07,0-1.57,0-.1,0-.12-.05-.12-.14-.02-.45-.04-.9-.07-1.43Z"/><path class="i" d="M38.22,80.77l1.63-1.42c0,.43,0,.87,0,1.31,0,.11-.07,.11-.15,.11-.47,0-.94,0-1.48,0Z"/><path class="h" d="M27.13,47.8c-.66-1.52-.57-2.83,.63-3.47,.28,1.24,.05,2.38-.63,3.47Z"/></g></svg>