<?xml version="1.0" encoding="UTF-8"?><svg id="a" xmlns="http://www.w3.org/2000/svg" xmlns:xlink="http://www.w3.org/1999/xlink" viewBox="0 0 96.98 114.35"><defs><style>.d{fill:url(#c);}.e{fill:url(#b);}.f{fill:#f5f5f5;}.g{fill:none;stroke:#fff;stroke-miterlimit:10;stroke-width:2px;}</style><linearGradient id="b" x1="25.56" y1="60.04" x2="63.54" y2="60.04" gradientTransform="matrix(1, 0, 0, 1, 0, 0)" gradientUnits="userSpaceOnUse"><stop offset="0" stop-color="#2a0008"/><stop offset=".24" stop-color="#2a0611"/><stop offset=".63" stop-color="#2a182b"/><stop offset="1" stop-color="#2a2d49"/></linearGradient><linearGradient id="c" x1="35.09" y1="60.04" x2="54" y2="60.04" xlink:href="#b"/></defs><g/><rect class="g" x="1.02" y="17.41" width="87.07" height="87.07" rx="3.31" ry="3.31"/><g><path class="e" d="M27.19,29.81h.65c1.1,.19,1.67,.87,1.68,2.02,0,.44,0,.88,0,1.33,0,.32,.03,.34,.33,.35,.36,0,.73,0,1.09,0,.21,0,.3-.08,.3-.29,0-.51-.01-1.02,0-1.53,.02-.71,.33-1.26,.92-1.65,.23-.15,.5-.16,.75-.22h.59c1.1,.19,1.67,.87,1.68,2.02,0,.44,0,.88,0,1.33,0,.32,.03,.34,.33,.35,.36,0,.73,0,1.09,0,.21,0,.3-.08,.3-.29,0-.51-.01-1.02,0-1.53,.02-.71,.33-1.26,.92-1.65,.23-.15,.5-.16,.75-.22h.59c1.1,.19,1.67,.87,1.68,2.02,0,.44,0,.88,0,1.33,0,.32,.03,.34,.33,.35,.36,0,.73,0,1.09,0,.21,0,.3-.08,.3-.29,0-.51-.01-1.02,0-1.53,.02-.71,.33-1.26,.92-1.65,.23-.15,.5-.16,.75-.22h.59c1.1,.19,1.67,.87,1.68,2.02,0,.44,0,.88,0,1.33,0,.32,.03,.34,.33,.35,.36,0,.73,0,1.09,0,.21,0,.3-.08,.3-.29,0-.51-.01-1.02,0-1.53,.02-.71,.33-1.26,.92-1.65,.23-.15,.5-.16,.75-.22h.59c1.1,.19,1.67,.87,1.68,2.02,0,.44,0,.88,0,1.33,0,.31,.03,.34,.33,.35,.36,0,.73,0,1.09,0,.21,0,.3-.08,.3-.29,0-.51-.01-1.02,0-1.53,.02-.73,.35-1.29,.98-1.68,.2-.12,.43-.13,.64-.19h.65c1.1,.19,1.67,.87,1.68,2.02,0,.44,0,.88,0,1.33,0,.32,.03,.34,.33,.35,.36,0,.73,0,1.09,0,.21,0,.3-.08,.3-.29,0-.51-.01-1.02,0-1.53,.02-.71,.33-1.26,.92-1.65,.23-.15,.5-.16,.75-.22h.59c1.13,.2,1.69,.87,1.69,2.04,0,1.78,0,3.56,0,5.34,0,16.95,0,33.9,0,50.86,0,.35,0,.69-.13,1.02-.28,.71-.77,1.14-1.56,1.21h-.59c-1.1-.19-1.67-.87-1.68-2.02,0-.45,0-.9,0-1.36,0-.24-.09-.33-.33-.32-.34,.01-.69,0-1.03,0-.34,0-.36,.02-.36,.38,0,.47,.02,.94,0,1.41-.03,.77-.35,1.38-1.06,1.75-.2,.1-.41,.11-.62,.15h-.59c-1.1-.19-1.67-.87-1.68-2.02,0-.45,0-.9,0-1.36,0-.24-.09-.33-.33-.32-.34,.01-.69,0-1.03,0-.34,0-.36,.02-.36,.38,0,.47,.02,.94,0,1.41-.03,.77-.35,1.38-1.06,1.75-.2,.1-.41,.11-.62,.15h-.59c-1.1-.19-1.67-.87-1.68-2.02,0-.45,0-.9,0-1.36,0-.24-.09-.33-.33-.32-.34,.01-.69,0-1.03,0-.34,0-.36,.02-.36,.38,0,.47,.02,.94,0,1.41-.03,.77-.35,1.38-1.06,1.75-.2,.1-.41,.11-.62,.15h-.59c-1.1-.19-1.68-.88-1.68-2.02,0-.45,0-.9,0-1.36,0-.24-.09-.33-.33-.32-.35,.01-.71,0-1.06,0-.3,0-.33,.03-.33,.35,0,.49,.02,.98,0,1.47-.04,.76-.36,1.36-1.05,1.72-.2,.1-.41,.11-.62,.15h-.59c-1.1-.19-1.68-.88-1.68-2.02,0-.45,0-.9,0-1.36,0-.24-.09-.33-.33-.32-.35,.01-.71,0-1.06,0-.3,0-.33,.03-.33,.35,0,.49,.02,.98,0,1.47-.04,.76-.36,1.36-1.05,1.72-.2,.1-.41,.11-.62,.15h-.59c-1.1-.19-1.67-.87-1.68-2.02,0-.45,0-.9,0-1.36,0-.24-.09-.33-.33-.32-.34,.01-.69,0-1.03,0-.34,0-.36,.02-.36,.38,0,.47,.02,.94,0,1.41-.03,.77-.35,1.38-1.06,1.75-.2,.1-.41,.11-.62,.15h-.59c-1.13-.2-1.69-.87-1.69-2.04,0-1.79,0-3.58,0-5.37,0-16.94,0-33.89,0-50.83,0-.23-.01-.45,.03-.68,.16-.85,.69-1.36,1.6-1.54Z"/><path class="f" d="M29.43,60.04c0-5.56,0-11.12,0-16.68,0-.27,.07-.33,.33-.33,9.86,0,19.72,0,29.58,0,.27,0,.33,.07,.33,.33,0,11.12,0,22.24,0,33.36,0,.27-.06,.33-.33,.33-9.86,0-19.72,0-29.58,0-.27,0-.33-.07-.33-.33,0-5.56,0-11.12,0-16.68Z"/><path class="f" d="M44.58,37.37c4.93,0,9.86,0,14.79,0,.24,0,.31,.05,.3,.3-.02,.44-.02,.89,0,1.33,.01,.22-.05,.27-.27,.27-4.65,0-9.31,0-13.96,0-5.24,0-10.47,0-15.71,0-.25,0-.31-.05-.3-.3,.02-.44,.02-.89,0-1.33-.01-.22,.05-.27,.27-.27,4.47,0,8.94,0,13.4,0,.49,0,.98,0,1.48,0Z"/><path class="f" d="M44.55,80.83c4.93,0,9.86,0,14.79,0,.27,0,.35,.06,.33,.33-.02,.43-.02,.87,0,1.3,.01,.22-.05,.27-.27,.27-2.02,0-4.03,0-6.05,0-7.87,0-15.75,0-23.62,0-.24,0-.32-.05-.3-.3,.02-.44,.02-.89,0-1.33,0-.22,.05-.27,.27-.27,4.55,0,9.09,0,13.64,0,.4,0,.81,0,1.21,0Z"/><path class="d" d="M54,63.65c0,2.53,0,5.06,0,7.59,0,1.25-.79,2.04-2.05,2.04-4.94,0-9.88,0-14.82,0-1.24,0-2.03-.79-2.03-2.02,0-4.84,.04-9.68-.01-14.52-.03-2.75,.98-4.97,3.03-6.75,1.73-1.5,3.75-2.46,5.93-3.09,.39-.11,.78-.07,1.16,.04,2.34,.71,4.49,1.77,6.26,3.5,1.69,1.65,2.56,3.66,2.54,6.04-.02,2.39,0,4.78,0,7.17Z"/><path class="f" d="M50.22,62.64c0,2.19,0,4.39,0,6.58,0,.22-.05,.27-.27,.27-3.6,0-7.2,0-10.8,0-.21,0-.28-.03-.28-.27,0-4.3,0-8.6,0-12.9,0-1.41,.63-2.51,1.63-3.43,1.13-1.03,2.48-1.68,3.9-2.18,.09-.03,.17-.03,.26,0,1.54,.55,2.99,1.25,4.16,2.43,.93,.93,1.41,2.05,1.39,3.39-.03,2.04,0,4.07,0,6.11Z"/></g></svg>