<?xml version="1.0" encoding="UTF-8"?><svg id="a" xmlns="http://www.w3.org/2000/svg" xmlns:xlink="http://www.w3.org/1999/xlink" viewBox="0 0 96.98 114.35"><defs><style>.c{fill:url(#b);}.d{fill:#f5f5f5;}.e{fill:none;stroke:#fff;stroke-miterlimit:10;stroke-width:2px;}</style><linearGradient id="b" x1="27.06" y1="60.04" x2="61.09" y2="60.04" gradientTransform="matrix(1, 0, 0, 1, 0, 0)" gradientUnits="userSpaceOnUse"><stop offset="0" stop-color="#2a0008"/><stop offset=".24" stop-color="#2a0611"/><stop offset=".63" stop-color="#2a182b"/><stop offset="1" stop-color="#2a2d49"/></linearGradient></defs><g/><rect class="e" x="1.02" y="17.41" width="87.07" height="87.07" rx="3.31" ry="3.31"/><g><path class="c" d="M56,90.28h-23.97s-.05-.05-.09-.06c-2.7-.37-4.95-2.75-4.88-5.85,.04-1.7,0-3.4,0-5.11,0-8.29,0-16.59,0-24.88,0-3.07,2.4-5.55,5.44-5.67,.21,0,.23-.08,.23-.26,0-2.46,0-4.92,0-7.38,0-.2-.06-.28-.24-.36-2.14-.86-3.55-2.96-3.54-5.27,0-2.31,1.44-4.39,3.59-5.24,.46-.18,.96-.25,1.43-.39h20.19s.04,.05,.09,.06c2.76,.34,4.89,2.71,4.93,5.49,.04,2.38-1.36,4.49-3.56,5.38-.13,.05-.22,.1-.22,.28,0,2.5,0,5,0,7.5,0,.15,.04,.2,.19,.2,.37,0,.74,.06,1.11,.14,2.54,.6,4.35,2.86,4.37,5.47,.01,2.73,0,5.47,0,8.2,0,7.33,0,14.66,0,21.99,0,2.56-1.56,4.72-3.95,5.5-.37,.12-.76,.16-1.13,.27Zm-11.93-56.69c-3.15,0-6.3,0-9.45,0-1.04,0-1.87,.83-1.89,1.84-.02,1.03,.77,1.88,1.79,1.94,1.28,.06,1.99,.81,1.99,2.1,0,2.98,0,5.96,0,8.95,0,.25,.06,.3,.3,.3,4.84,0,9.68,0,14.52,0,.25,0,.3-.06,.3-.3,0-2.98,0-5.96,0-8.95,0-1.3,.7-2.03,1.99-2.1,.98-.05,1.78-.87,1.79-1.85,.02-1.07-.82-1.92-1.92-1.93-3.14,0-6.28,0-9.42,0Zm-1.89,35.05l-.07,.04c-.18-.19-.35-.4-.55-.58-.53-.47-1.15-.62-1.84-.4-1.36,.43-1.77,2.11-.75,3.14,1,1.03,2.03,2.03,3.04,3.05,.07,.07,.17,.13,.17,.26,0,.68,0,1.37,0,2.14-.21-.22-.37-.4-.53-.56-.79-.76-1.95-.76-2.7-.01-.74,.75-.74,1.91,.03,2.68,1.24,1.26,2.5,2.51,3.76,3.76,.77,.76,1.9,.77,2.67,0,1.27-1.25,2.52-2.51,3.78-3.78,.34-.34,.54-.76,.55-1.24,.03-.81-.33-1.43-1.05-1.8-.68-.35-1.5-.23-2.09,.29-.21,.18-.4,.38-.63,.61,0-.69,0-1.32,0-1.94,0-.18,.05-.31,.18-.44,1-.99,1.99-1.99,2.99-2.98,.36-.36,.59-.79,.61-1.3,.02-.81-.33-1.43-1.06-1.8-.69-.35-1.5-.23-2.09,.29-.21,.18-.4,.38-.63,.61,0-.69,0-1.32,0-1.95,0-.18,.06-.31,.18-.43,1-.99,1.99-1.99,2.99-2.98,.47-.47,.7-1.03,.59-1.68-.12-.74-.54-1.25-1.26-1.5-.73-.25-1.38-.08-1.93,.44-.75,.72-1.48,1.47-2.21,2.21-.18,.18-.28,.21-.47,.01-.71-.74-1.44-1.45-2.17-2.17-.55-.54-1.2-.74-1.95-.51-1.37,.43-1.77,2.11-.74,3.16,1,1.02,2.02,2.02,3.02,3.03,.07,.07,.17,.13,.17,.26,0,.68,0,1.37,0,2.05Zm3.78-10.48c0-1.04-.81-1.86-1.87-1.87-1.04-.02-1.9,.8-1.91,1.84-.01,1.04,.84,1.91,1.87,1.92,1.04,0,1.9-.84,1.91-1.88Z"/><path class="d" d="M44.08,33.59c3.14,0,6.28,0,9.42,0,1.1,0,1.94,.85,1.92,1.93-.01,.98-.81,1.8-1.79,1.85-1.29,.07-1.99,.8-1.99,2.1,0,2.98,0,5.96,0,8.95,0,.24-.06,.3-.3,.3-4.84,0-9.68,0-14.52,0-.24,0-.3-.05-.3-.3,0-2.98,0-5.96,0-8.95,0-1.29-.7-2.04-1.99-2.1-1.02-.05-1.81-.91-1.79-1.94,.02-1.01,.85-1.84,1.89-1.84,3.15,0,6.3,0,9.45,0Z"/><path class="d" d="M42.19,68.64c0-.68,0-1.37,0-2.05,0-.13-.1-.19-.17-.26-1.01-1.01-2.02-2.01-3.02-3.03-1.03-1.05-.64-2.74,.74-3.16,.74-.23,1.4-.04,1.95,.51,.73,.72,1.46,1.44,2.17,2.17,.2,.2,.3,.17,.47-.01,.73-.75,1.46-1.49,2.21-2.21,.55-.53,1.2-.69,1.93-.44,.71,.24,1.14,.76,1.26,1.5,.11,.66-.12,1.22-.59,1.68-1,.99-1.99,1.99-2.99,2.98-.13,.13-.19,.25-.18,.43,.01,.63,0,1.26,0,1.95,.23-.22,.42-.42,.63-.61,.58-.52,1.4-.65,2.09-.29,.72,.37,1.08,.98,1.06,1.8-.02,.51-.25,.94-.61,1.3-1,.99-1.99,1.99-2.99,2.98-.13,.13-.18,.25-.18,.44,.01,.63,0,1.26,0,1.94,.23-.23,.43-.42,.63-.61,.58-.52,1.4-.64,2.09-.29,.72,.37,1.08,.98,1.05,1.8-.02,.48-.21,.9-.55,1.24-1.26,1.26-2.51,2.53-3.78,3.78-.77,.76-1.9,.75-2.67,0-1.26-1.24-2.51-2.5-3.76-3.76-.76-.77-.76-1.93-.03-2.68,.74-.75,1.91-.75,2.7,.01,.17,.16,.32,.33,.53,.56,0-.77,0-1.46,0-2.14,0-.13-.1-.19-.17-.26-1.01-1.02-2.04-2.02-3.04-3.05-1.02-1.04-.61-2.72,.75-3.14,.68-.21,1.3-.07,1.84,.4,.2,.18,.37,.39,.55,.58l.07-.04Z"/><path class="d" d="M45.97,58.17c0,1.04-.87,1.89-1.91,1.88-1.03,0-1.88-.88-1.87-1.92,.01-1.03,.86-1.85,1.91-1.84,1.06,.02,1.88,.83,1.87,1.87Z"/></g></svg>