<?xml version="1.0" encoding="UTF-8"?><svg id="a" xmlns="http://www.w3.org/2000/svg" xmlns:xlink="http://www.w3.org/1999/xlink" viewBox="0 0 96.98 114.35"><defs><style>.f{fill:url(#e);}.g{fill:url(#d);}.h{fill:url(#c);}.i{fill:url(#b);}.j{fill:#f5f5f5;}.k{fill:none;stroke:#fff;stroke-miterlimit:10;stroke-width:2px;}</style><linearGradient id="b" x1="44.69" y1="59.97" x2="74.85" y2="59.97" gradientTransform="matrix(1, 0, 0, 1, 0, 0)" gradientUnits="userSpaceOnUse"><stop offset="0" stop-color="#2a0008"/><stop offset=".24" stop-color="#2a0611"/><stop offset=".63" stop-color="#2a182b"/><stop offset="1" stop-color="#2a2d49"/></linearGradient><linearGradient id="c" x1="14.52" x2="44.69" xlink:href="#b"/><linearGradient id="d" x1="33.38" y1="59.98" x2="37.14" y2="59.98" xlink:href="#b"/><linearGradient id="e" x1="63.54" y1="59.99" x2="67.31" y2="59.99" xlink:href="#b"/></defs><g/><rect class="k" x="1.02" y="17.41" width="87.07" height="87.07" rx="3.31" ry="3.31"/><g><path class="i" d="M56.82,90.14c-.06-.19-.26-.16-.39-.2-2.58-.76-4.19-2.87-4.2-5.57-.01-3.55-.01-7.11,0-10.66,0-.43-.08-.59-.54-.55-.45,.05-.9,0-1.35,.01-1.04,.03-1.81,.77-1.89,1.8-.09,1.24-.92,2.04-2.02,1.96-1.07-.08-1.79-.97-1.74-2.18,.12-2.84,2.51-5.23,5.35-5.35,.55-.02,1.1-.04,1.65,0,.44,.03,.54-.1,.54-.54-.02-4.63-.01-9.27-.01-13.9,0-2.83-.02-5.65,0-8.48,.03-3.56,.8-6.93,2.83-9.91,2.36-3.48,5.67-5.61,9.72-6.65,.08-.02,.15-.02,.17-.11h.94c1.09,.46,1.47,1.3,1.43,2.47-.06,1.86-.02,3.73-.02,5.59,0,5.42,0,10.84,0,16.25,0,.9-.35,1.57-1.17,1.93-1.28,.57-2.6-.41-2.61-1.92,0-6.4,0-12.8,0-19.2v-.67c-1.21,.52-2.25,1.17-3.19,1.97-2.97,2.55-4.27,5.9-4.31,9.69-.09,7.69-.03,15.39-.04,23.08,0,.3,.07,.4,.39,.39,2.26-.01,4.51-.02,6.77,0,.37,0,.4-.15,.39-.45-.01-1.1-.02-2.2,0-3.3,.01-1.1,.83-1.92,1.89-1.92,1.05,0,1.86,.83,1.88,1.93,.01,.73-.01,1.45,0,2.18,.01,.5-.22,1.19,.1,1.46,.31,.25,.97,.09,1.48,.09,1.41,0,2.06-.61,2.2-2.03,.08-.86,.7-1.55,1.54-1.71,.82-.16,1.64,.27,2.05,1.06,.06,.11,0,.29,.18,.33v1.53c-.2,.09-.17,.3-.21,.45-.61,2.01-1.93,3.32-3.93,3.93-.94,.29-1.91,.22-2.86,.2-.44-.01-.55,.1-.54,.54,.02,3.59,.02,7.18,0,10.78-.01,2.49-1.56,4.59-3.91,5.39-.3,.1-.65,.06-.92,.27h-5.66Zm3-16.97c-.8,0-1.61,0-2.41,0-1.43,0-1.42,0-1.43,1.41,0,.38,.1,.48,.48,.48,1.88-.02,3.77,0,5.65,0,1.45,0,1.44,0,1.42-1.47,0-.33-.09-.43-.42-.42-1.1,.02-2.2,0-3.3,0Zm-.08,7.54c.79,0,1.57,0,2.36,0,1.46,0,1.44,0,1.44-1.46,0-.39-.13-.44-.47-.44-1.88,.02-3.77,0-5.65,.01-.46,0-1.1-.21-1.35,.09-.23,.28-.05,.9-.09,1.36-.04,.39,.12,.44,.46,.44,1.1-.02,2.2,0,3.3,0Zm.05,3.77c-1.14,0-2.27,.01-3.41,0-.35,0-.44,.09-.35,.43,.21,.81,.92,1.44,1.78,1.45,1.29,.02,2.59,.02,3.88,0,.86-.01,1.57-.63,1.79-1.44,.08-.32,.04-.45-.34-.44-1.12,.02-2.24,0-3.35,0Z"/><path class="h" d="M32.31,29.81c.27,.21,.61,.16,.92,.27,2.36,.8,3.9,2.92,3.91,5.45,.01,3.57,.01,7.15,0,10.72,0,.44,.11,.58,.55,.54,.39-.04,.78,0,1.18,0,1.24,0,1.98-.7,2.06-1.93,.06-.9,.61-1.57,1.45-1.79,.75-.19,1.56,.13,2,.8,.22,.34,.32,.7,.32,1.11,0,2.93-2.43,5.45-5.37,5.57-.55,.02-1.1,.05-1.65,0-.47-.04-.54,.14-.53,.56,.03,1.02,.01,2.04,0,3.06,0,1.19-.79,2.05-1.88,2.05-1.09,0-1.88-.85-1.89-2.04,0-1.04-.03-2.08,0-3.12,.01-.43-.13-.5-.52-.5-2.18,.02-4.36,.02-6.54,0-.43,0-.5,.13-.5,.52,.01,7.85,0,15.71,0,23.56,0,3.46,0,6.91,0,10.37,0,.21,0,.42,0,.7,2.66-1.18,4.66-2.96,5.98-5.49,1.06-2.04,1.51-4.24,1.54-6.52,.04-2.61,.01-5.22,.01-7.83,0-1.25,.77-2.1,1.89-2.1,1.11,0,1.88,.86,1.88,2.11,0,2.63,.04,5.26-.01,7.89-.1,4.42-1.35,8.42-4.48,11.68-2.24,2.33-4.97,3.85-8.11,4.61-.04,.01-.08,.07-.12,.1h-1.06c-1.12-.59-1.32-1.56-1.32-2.75,.03-11.73,.02-23.46,.01-35.19,0-.54,.24-1.26-.11-1.57-.3-.27-1.01-.08-1.53-.08-1.32,0-2.02,.66-2.13,1.98-.07,.85-.62,1.52-1.43,1.73-.78,.21-1.62-.15-2.08-.87-.08-.13-.08-.31-.26-.37v-1.65c.2-.09,.17-.3,.21-.45,.53-1.79,1.67-3.03,3.38-3.75,1.1-.47,2.27-.42,3.42-.38,.44,.02,.54-.1,.54-.54-.02-3.55-.02-7.11,0-10.66,0-2.7,1.62-4.82,4.2-5.58,.13-.04,.33,0,.39-.2h5.66Zm-2.71,9.43c-.79,0-1.57,0-2.36,0-1.43,0-1.42,0-1.42,1.42,0,.39,.1,.48,.48,.48,1.88-.02,3.77-.01,5.65,0,1.45,0,1.44,0,1.42-1.47,0-.33-.09-.43-.42-.42-1.12,.02-2.24,0-3.36,0Zm-.06,7.54c.8,0,1.61,0,2.41,0,1.43,0,1.42,0,1.43-1.41,0-.39-.1-.48-.48-.48-1.88,.02-3.77,.01-5.65,0-1.45,0-1.44,0-1.42,1.47,0,.33,.09,.43,.42,.42,1.1-.02,2.2,0,3.3,0Zm.04-11.31c1.14,0,2.28-.01,3.41,0,.38,0,.42-.13,.33-.44-.22-.82-.93-1.43-1.79-1.44-1.29-.02-2.59-.02-3.88,0-.86,.01-1.57,.63-1.78,1.45-.09,.35,0,.44,.35,.43,1.12-.02,2.24,0,3.35,0Z"/><path class="g" d="M37.14,59.98c0,1.02-.85,1.87-1.87,1.88-1.04,0-1.91-.86-1.9-1.91,.01-1.04,.85-1.85,1.9-1.84,1.05,0,1.87,.83,1.87,1.87Z"/><path class="j" d="M59.83,73.17c1.1,0,2.2,.01,3.3,0,.33,0,.42,.09,.42,.42,.02,1.47,.03,1.47-1.42,1.47-1.88,0-3.77-.01-5.65,0-.38,0-.48-.1-.48-.48,0-1.41,0-1.41,1.43-1.41,.8,0,1.61,0,2.41,0Z"/><path class="j" d="M59.75,80.71c-1.1,0-2.2-.01-3.3,0-.34,0-.5-.05-.46-.44,.05-.46-.14-1.08,.09-1.36,.25-.3,.88-.09,1.35-.09,1.88-.01,3.77,0,5.65-.01,.34,0,.47,.05,.47,.44,0,1.46,.02,1.46-1.44,1.46-.79,0-1.57,0-2.36,0Z"/><path class="j" d="M59.8,84.48c1.12,0,2.24,.01,3.35,0,.37,0,.42,.12,.34,.44-.21,.82-.92,1.43-1.79,1.44-1.29,.02-2.59,.02-3.88,0-.86-.01-1.57-.64-1.78-1.45-.09-.34,0-.44,.35-.43,1.14,.02,2.27,0,3.41,0Z"/><path class="j" d="M29.6,39.24c1.12,0,2.24,.01,3.36,0,.33,0,.42,.09,.42,.42,.02,1.47,.03,1.47-1.42,1.47-1.88,0-3.77-.01-5.65,0-.38,0-.49-.09-.48-.48,0-1.42,0-1.42,1.42-1.42,.79,0,1.57,0,2.36,0Z"/><path class="j" d="M29.55,46.78c-1.1,0-2.2-.01-3.3,0-.33,0-.42-.09-.42-.42-.02-1.47-.03-1.47,1.42-1.47,1.88,0,3.77,.01,5.65,0,.38,0,.49,.09,.48,.48,0,1.41,0,1.41-1.43,1.41-.8,0-1.61,0-2.41,0Z"/><path class="j" d="M29.58,35.47c-1.12,0-2.24-.01-3.35,0-.35,0-.44-.08-.35-.43,.22-.82,.92-1.44,1.78-1.45,1.29-.02,2.59-.02,3.88,0,.86,.01,1.57,.62,1.79,1.44,.08,.32,.05,.45-.33,.44-1.14-.02-2.28,0-3.41,0Z"/><path class="f" d="M63.54,59.89c.04-1.03,.92-1.83,1.96-1.77,1.06,.05,1.84,.9,1.81,1.93-.04,1.05-.94,1.87-1.99,1.81-1.02-.05-1.82-.94-1.77-1.97Z"/></g></svg>